<svg width="180" height="180" viewBox="0 0 180 180" fill="none" xmlns="http://www.w3.org/2000/svg">
<path opacity="0.2" d="M90 157.5C127.279 157.5 157.5 127.279 157.5 90C157.5 52.7208 127.279 22.5 90 22.5C52.7208 22.5 22.5 52.7208 22.5 90C22.5 127.279 52.7208 157.5 90 157.5Z" fill="#CACACA"/>
<path d="M90 50.625V61.875" stroke="#CACACA" stroke-width="5" stroke-linecap="round" stroke-linejoin="round"/>
<path d="M90 118.125V129.375" stroke="#CACACA" stroke-width="5" stroke-linecap="round" stroke-linejoin="round"/>
<path d="M90 157.5C127.279 157.5 157.5 127.279 157.5 90C157.5 52.7208 127.279 22.5 90 22.5C52.7208 22.5 22.5 52.7208 22.5 90C22.5 127.279 52.7208 157.5 90 157.5Z" stroke="#CACACA" stroke-width="5" stroke-linecap="round" stroke-linejoin="round"/>
<path d="M73.125 118.125H98.4375C102.167 118.125 105.744 116.643 108.381 114.006C111.018 111.369 112.5 107.792 112.5 104.062C112.5 100.333 111.018 96.756 108.381 94.1188C105.744 91.4816 102.167 90 98.4375 90H81.5625C77.8329 90 74.256 88.5184 71.6188 85.8812C68.9816 83.244 67.5 79.6671 67.5 75.9375C67.5 72.2079 68.9816 68.631 71.6188 65.9938C74.256 63.3566 77.8329 61.875 81.5625 61.875H106.875" stroke="#CACACA" stroke-width="5" stroke-linecap="round" stroke-linejoin="round"/>
</svg>
