<svg width="202" height="56" viewBox="0 0 202 56" fill="none" xmlns="http://www.w3.org/2000/svg">
<rect x="84.5" y="0.5" width="33" height="23" rx="3.5" fill="white" stroke="#D9D9D9"/>
<path fill-rule="evenodd" clip-rule="evenodd" d="M101.179 16.7995C99.9949 17.7975 98.459 18.4 96.7807 18.4C93.0358 18.4 90 15.4003 90 11.7C90 7.99969 93.0358 5 96.7807 5C98.459 5 99.9949 5.6025 101.179 6.60054C102.363 5.6025 103.899 5 105.577 5C109.322 5 112.358 7.99969 112.358 11.7C112.358 15.4003 109.322 18.4 105.577 18.4C103.899 18.4 102.363 17.7975 101.179 16.7995Z" fill="#ED0006"/>
<path fill-rule="evenodd" clip-rule="evenodd" d="M101.179 16.7995C102.637 15.5706 103.561 13.742 103.561 11.7C103.561 9.65804 102.637 7.82944 101.179 6.60054C102.363 5.6025 103.899 5 105.577 5C109.322 5 112.358 7.99969 112.358 11.7C112.358 15.4003 109.322 18.4 105.577 18.4C103.899 18.4 102.363 17.7975 101.179 16.7995Z" fill="#F9A000"/>
<path fill-rule="evenodd" clip-rule="evenodd" d="M101.179 16.7995C102.637 15.5706 103.561 13.742 103.561 11.7C103.561 9.65808 102.637 7.82949 101.179 6.60059C99.7211 7.82949 98.7966 9.65808 98.7966 11.7C98.7966 13.742 99.7211 15.5706 101.179 16.7995Z" fill="#FF5E00"/>
<rect x="84.5" y="32.5" width="33" height="23" rx="3.5" fill="white" stroke="#D9D9D9"/>
<path d="M91.8241 41.4956C92.1118 41.4013 92.4196 41.3501 92.7398 41.3501C94.1374 41.3501 95.3032 42.3239 95.5706 43.6176L97.551 43.2215C97.0966 41.0228 95.1155 39.3677 92.7398 39.3677C92.1959 39.3677 91.6724 39.4546 91.1837 39.6147L91.8241 41.4956Z" fill="#FECA2F"/>
<path d="M89.4673 47.8676L90.6531 46.3365C90.1238 45.8011 89.7897 45.0195 89.7897 44.1483C89.7897 43.2777 90.1234 42.4961 90.6526 41.9611L89.4662 40.4302C88.5668 41.3398 88 42.6684 88 44.1483C88 45.6289 88.5676 46.958 89.4673 47.8676Z" fill="#1BA7DE"/>
<path d="M95.5712 44.6802C95.3029 45.9737 94.1378 46.9463 92.7415 46.9463C92.4211 46.9463 92.1128 46.8949 91.8251 46.8003L91.1837 48.6822C91.6732 48.8431 92.1969 48.9301 92.7415 48.9301C95.115 48.9301 97.0948 47.2762 97.551 45.0783L95.5712 44.6802Z" fill="#EC412A"/>
<path fill-rule="evenodd" clip-rule="evenodd" d="M107.079 40.4302V45.8714L108.056 46.2628L107.594 47.336L106.628 46.9479C106.411 46.8569 106.264 46.7181 106.153 46.5615C106.045 46.4012 105.966 46.1821 105.966 45.8864V40.4302H107.079ZM99.6738 44.4743C99.6981 42.9183 101.023 41.6761 102.631 41.7C103.996 41.7207 105.127 42.645 105.424 43.8745L100.145 46.056C99.8387 45.6028 99.6644 45.0575 99.6738 44.4743ZM100.882 44.6924C100.874 44.6271 100.869 44.5602 100.871 44.4927C100.886 43.5759 101.666 42.8444 102.614 42.8596C103.129 42.8662 103.587 43.0946 103.897 43.448L100.882 44.6924ZM103.786 45.7026C103.468 46.0019 103.036 46.1842 102.56 46.1776C102.233 46.1724 101.931 46.0778 101.674 45.9204L101.036 46.9028C101.473 47.1698 101.988 47.3277 102.543 47.336C103.351 47.3476 104.087 47.0407 104.623 46.5339L103.786 45.7026ZM111.143 42.8595C110.953 42.8595 110.77 42.8892 110.6 42.9447L110.22 41.8437C110.51 41.7501 110.82 41.6992 111.143 41.6992C112.554 41.6992 113.73 42.6679 114 43.9548L112.824 44.1867C112.665 43.4293 111.973 42.8595 111.143 42.8595ZM109.212 46.629L110.007 45.76C109.652 45.4561 109.429 45.0123 109.429 44.5176C109.429 44.0235 109.652 43.5799 110.007 43.2763L109.211 42.4072C108.608 42.9236 108.229 43.678 108.229 44.5176C108.229 45.3583 108.609 46.1125 109.212 46.629ZM111.143 46.1761C111.972 46.1761 112.664 45.6068 112.824 44.8506L114 45.0834C113.729 46.3689 112.552 47.3363 111.143 47.3363C110.82 47.3363 110.509 47.2853 110.218 47.1912L110.599 46.0906C110.77 46.1459 110.953 46.1761 111.143 46.1761Z" fill="black"/>
<rect x="126.5" y="32.5" width="33" height="23" rx="3.5" fill="white" stroke="#D9D9D9"/>
<path fill-rule="evenodd" clip-rule="evenodd" d="M132.67 39H133.825V49.8252H132.67V39Z" fill="black"/>
<path fill-rule="evenodd" clip-rule="evenodd" d="M134.191 39H134.548V49.8252H134.191V39Z" fill="black"/>
<path fill-rule="evenodd" clip-rule="evenodd" d="M134.86 39H135.501V49.8252H134.86V39Z" fill="black"/>
<path fill-rule="evenodd" clip-rule="evenodd" d="M136.119 39H136.478V49.8252H136.119V39Z" fill="black"/>
<path fill-rule="evenodd" clip-rule="evenodd" d="M136.634 39H136.91V49.8252H136.634V39Z" fill="black"/>
<path fill-rule="evenodd" clip-rule="evenodd" d="M131.79 39H132.149V49.8252H131.79V39Z" fill="black"/>
<path fill-rule="evenodd" clip-rule="evenodd" d="M131 39H131.642V49.8252H131V39Z" fill="black"/>
<path fill-rule="evenodd" clip-rule="evenodd" d="M138.824 39H139.981V49.8252H138.824V39Z" fill="black"/>
<path fill-rule="evenodd" clip-rule="evenodd" d="M140.345 39H140.704V49.8252H140.345V39Z" fill="black"/>
<path fill-rule="evenodd" clip-rule="evenodd" d="M141.016 39H141.657V49.8252H141.016V39Z" fill="black"/>
<path fill-rule="evenodd" clip-rule="evenodd" d="M142.276 39H142.632V49.8252H142.276V39Z" fill="black"/>
<path fill-rule="evenodd" clip-rule="evenodd" d="M142.79 39H143.066V49.8252H142.79V39Z" fill="black"/>
<path fill-rule="evenodd" clip-rule="evenodd" d="M137.946 39H138.303V49.8252H137.946V39Z" fill="black"/>
<path fill-rule="evenodd" clip-rule="evenodd" d="M137.156 39H137.798V49.8252H137.156V39Z" fill="black"/>
<path fill-rule="evenodd" clip-rule="evenodd" d="M143.52 39H144.16V49.8252H143.52V39Z" fill="black"/>
<path fill-rule="evenodd" clip-rule="evenodd" d="M144.778 39H145.137V49.8252H144.778V39Z" fill="black"/>
<path fill-rule="evenodd" clip-rule="evenodd" d="M145.294 39H145.568V49.8252H145.294V39Z" fill="black"/>
<path fill-rule="evenodd" clip-rule="evenodd" d="M146.605 39H146.964V49.8252H146.605V39Z" fill="black"/>
<path fill-rule="evenodd" clip-rule="evenodd" d="M145.815 39H146.456V49.8252H145.815V39Z" fill="black"/>
<path fill-rule="evenodd" clip-rule="evenodd" d="M147.44 39H147.799V49.8252H147.44V39Z" fill="black"/>
<path fill-rule="evenodd" clip-rule="evenodd" d="M147.954 39H148.23V49.8252H147.954V39Z" fill="black"/>
<path fill-rule="evenodd" clip-rule="evenodd" d="M149.264 39H149.623V49.8252H149.264V39Z" fill="black"/>
<path fill-rule="evenodd" clip-rule="evenodd" d="M148.474 39H149.116V49.8252H148.474V39Z" fill="black"/>
<path fill-rule="evenodd" clip-rule="evenodd" d="M149.936 39H151.091V49.8252H149.936V39Z" fill="black"/>
<path fill-rule="evenodd" clip-rule="evenodd" d="M151.457 39H151.813V49.8252H151.457V39Z" fill="black"/>
<path fill-rule="evenodd" clip-rule="evenodd" d="M152.126 39H152.767V49.8252H152.126V39Z" fill="black"/>
<path fill-rule="evenodd" clip-rule="evenodd" d="M153.385 39H153.744V49.8252H153.385V39Z" fill="black"/>
<path fill-rule="evenodd" clip-rule="evenodd" d="M153.899 39H154.176V49.8252H153.899V39Z" fill="black"/>
<path fill-rule="evenodd" clip-rule="evenodd" d="M154.63 39H155.272V49.8252H154.63V39Z" fill="black"/>
<path fill-rule="evenodd" clip-rule="evenodd" d="M132.309 49.8486H154.467V43.7817H132.309V49.8486Z" fill="white"/>
<path d="M132.725 49.617V44.1279H134.785C135.204 44.1279 135.54 44.1832 135.794 44.2936C136.047 44.4041 136.245 44.5761 136.389 44.8077C136.534 45.0371 136.606 45.2793 136.606 45.5321C136.606 45.7657 136.542 45.9867 136.415 46.1948C136.287 46.4009 136.096 46.5687 135.839 46.6962C136.17 46.7939 136.427 46.9596 136.604 47.1954C136.782 47.429 136.871 47.7073 136.871 48.0259C136.871 48.283 136.816 48.523 136.708 48.7439C136.6 48.9649 136.466 49.1348 136.306 49.2559C136.147 49.3748 135.945 49.4662 135.705 49.5278C135.463 49.5894 135.168 49.6191 134.819 49.6191H132.725V49.617ZM133.454 46.4349H134.641C134.964 46.4349 135.193 46.4136 135.333 46.3711C135.518 46.3159 135.658 46.2246 135.752 46.0971C135.845 45.9697 135.892 45.8103 135.892 45.617C135.892 45.4343 135.85 45.2729 135.76 45.1348C135.673 44.9946 135.548 44.899 135.387 44.8481C135.225 44.7971 134.945 44.7716 134.552 44.7716H133.454V46.4349ZM133.454 48.9734H134.822C135.057 48.9734 135.221 48.9649 135.316 48.9457C135.482 48.916 135.622 48.8672 135.735 48.7971C135.848 48.727 135.939 48.625 136.013 48.4912C136.085 48.3573 136.122 48.2023 136.122 48.0281C136.122 47.822 136.068 47.6457 135.962 47.4928C135.858 47.3398 135.712 47.2357 135.525 47.1741C135.34 47.1125 135.07 47.0828 134.722 47.0828H133.451V48.9734H133.454Z" fill="black"/>
<path d="M137.532 47.627C137.532 46.892 137.736 46.3482 138.146 45.9934C138.488 45.7003 138.904 45.5537 139.397 45.5537C139.943 45.5537 140.389 45.7321 140.738 46.0911C141.084 46.448 141.258 46.943 141.258 47.5718C141.258 48.0837 141.182 48.4831 141.029 48.7762C140.876 49.0694 140.653 49.2967 140.357 49.4581C140.064 49.6195 139.743 49.7003 139.397 49.7003C138.841 49.7003 138.39 49.5218 138.046 49.1671C137.704 48.8102 137.532 48.2961 137.532 47.627ZM138.222 47.6291C138.222 48.1368 138.333 48.5192 138.556 48.7698C138.779 49.0226 139.059 49.1501 139.397 49.1501C139.733 49.1501 140.011 49.0226 140.234 48.7698C140.457 48.5149 140.568 48.1283 140.568 47.6079C140.568 47.1172 140.455 46.7454 140.232 46.4948C140.009 46.242 139.731 46.1145 139.397 46.1145C139.059 46.1145 138.779 46.2398 138.556 46.4905C138.333 46.7412 138.222 47.1214 138.222 47.6291Z" fill="black"/>
<path d="M142.033 49.617V44.1279H142.709V49.617H142.033Z" fill="black"/>
<path d="M146.467 48.328L147.163 48.4193C147.055 48.8251 146.851 49.1395 146.556 49.3646C146.259 49.5877 145.88 49.7003 145.419 49.7003C144.84 49.7003 144.379 49.5218 144.039 49.1628C143.699 48.806 143.529 48.3046 143.529 47.6589C143.529 46.9918 143.701 46.4735 144.043 46.106C144.387 45.7364 144.833 45.5537 145.381 45.5537C145.912 45.5537 146.346 45.7343 146.681 46.0954C147.017 46.4565 147.187 46.9663 147.187 47.6206C147.187 47.661 147.185 47.7205 147.183 47.7991H144.219C144.245 48.2345 144.368 48.5702 144.589 48.8017C144.81 49.0332 145.088 49.1501 145.417 49.1501C145.664 49.1501 145.874 49.0842 146.048 48.9546C146.227 48.8229 146.365 48.6148 146.467 48.328ZM144.257 47.2489H146.473C146.443 46.9132 146.358 46.6647 146.218 46.4969C146.006 46.2377 145.725 46.1081 145.385 46.1081C145.075 46.1081 144.816 46.2122 144.606 46.4183C144.398 46.6222 144.281 46.9005 144.257 47.2489Z" fill="black"/>
<path d="M149.481 49.0137L149.572 49.6085C149.383 49.6489 149.213 49.668 149.065 49.668C148.82 49.668 148.631 49.6298 148.495 49.5512C148.362 49.4726 148.266 49.3727 148.211 49.2453C148.156 49.1178 148.13 48.8523 148.13 48.4487V46.1587H147.633V45.6383H148.132V44.6548L148.808 44.249V45.6383H149.481V46.1587H148.806V48.489C148.806 48.6824 148.816 48.8056 148.842 48.8608C148.865 48.916 148.903 48.9585 148.956 48.9925C149.009 49.0244 149.086 49.0414 149.186 49.0414C149.26 49.0414 149.36 49.0329 149.481 49.0137Z" fill="black"/>
<path d="M149.893 47.627C149.893 46.892 150.097 46.3482 150.507 45.9934C150.849 45.7003 151.265 45.5537 151.758 45.5537C152.304 45.5537 152.75 45.7321 153.099 46.0911C153.445 46.448 153.619 46.943 153.619 47.5718C153.619 48.0837 153.543 48.4831 153.39 48.7762C153.237 49.0694 153.014 49.2967 152.718 49.4581C152.425 49.6195 152.104 49.7003 151.758 49.7003C151.202 49.7003 150.751 49.5218 150.407 49.1671C150.065 48.8102 149.893 48.2961 149.893 47.627ZM150.584 47.6291C150.584 48.1368 150.694 48.5192 150.917 48.7698C151.14 49.0226 151.42 49.1501 151.758 49.1501C152.094 49.1501 152.372 49.0226 152.595 48.7698C152.818 48.5149 152.929 48.1283 152.929 47.6079C152.929 47.1172 152.816 46.7454 152.593 46.4948C152.37 46.242 152.092 46.1145 151.758 46.1145C151.42 46.1145 151.14 46.2398 150.917 46.4905C150.694 46.7412 150.584 47.1214 150.584 47.6291Z" fill="black"/>
<rect x="42.5" y="32.5" width="33" height="23" rx="3.5" fill="white" stroke="#D9D9D9"/>
<path fill-rule="evenodd" clip-rule="evenodd" d="M57.8384 51.2998H60.4345C64.4869 51.2998 67.7162 48.0848 67.8429 44.1133V44.0503C67.7795 40.0157 64.4869 36.7377 60.4345 36.8007H57.5218C53.6594 36.9268 50.62 40.2048 50.7467 44.1133C50.7467 48.0217 53.9126 51.2368 57.8384 51.2998ZM52.0131 44.0503C52.0131 40.7722 54.7358 38.0615 58.0284 38.0615C61.321 38.0615 64.0437 40.7722 64.0437 44.0503C64.0437 47.3283 61.321 50.039 58.0284 50.039C54.7358 50.039 52.0131 47.3283 52.0131 44.0503ZM58.9782 48.0846V40.0786C61.1944 40.646 62.5874 42.8524 62.0175 45.0587C61.6376 46.5717 60.4978 47.7064 58.9782 48.0846ZM54.1026 43.0415C53.5327 45.2479 54.8624 47.5173 57.0786 48.0846V40.0786C55.6223 40.4569 54.4825 41.5916 54.1026 43.0415Z" fill="#0079BE"/>
<rect y="32" width="34" height="24" rx="4" fill="#1F72CD"/>
<path fill-rule="evenodd" clip-rule="evenodd" d="M6.18111 40L3 47.2467H6.80824L7.28035 46.0913H8.35949L8.8316 47.2467H13.0234V46.3649L13.3969 47.2467H15.5652L15.9387 46.3462V47.2467H24.6566L25.7166 46.1213L26.7092 47.2467L31.1868 47.2561L27.9957 43.6436L31.1868 40H26.7786L25.7467 41.1046L24.7854 40H15.3016L14.4872 41.8704L13.6537 40H9.85343V40.8519L9.43068 40H6.18111ZM6.91801 41.0288H8.77432L10.8844 45.9429V41.0288H12.9179L14.5476 44.5522L16.0496 41.0288H18.073V46.2288H16.8418L16.8318 42.1541L15.0368 46.2288H13.9355L12.1305 42.1541V46.2288H9.59776L9.11759 45.063H6.52341L6.04423 46.2278H4.68719L6.91801 41.0288ZM24.2055 41.0288H19.1993V46.2258H24.128L25.7166 44.5034L27.2477 46.2258H28.8483L26.5219 43.6423L28.8483 41.0288H27.3172L25.7367 42.7314L24.2055 41.0288ZM7.82099 41.9087L6.96631 43.9854H8.67467L7.82099 41.9087ZM20.4356 43.0551V42.1059V42.105H23.5593L24.9223 43.6231L23.4989 45.1495H20.4356V44.1132H23.1667V43.0551H20.4356Z" fill="white"/>
<rect x="42.5" y="0.5" width="33" height="23" rx="3.5" fill="white" stroke="#D9D9D9"/>
<path d="M69.8784 8.1123H68.269C67.7825 8.1123 67.4082 8.26201 67.1836 8.74856L64.1146 15.7474H66.2854C66.2854 15.7474 66.6597 14.8117 66.7345 14.5872C66.9591 14.5872 69.0924 14.5872 69.3918 14.5872C69.4667 14.8492 69.6538 15.71 69.6538 15.71H71.6L69.8784 8.1123ZM67.3333 13.0152C67.5205 12.5661 68.1567 10.8819 68.1567 10.8819C68.1567 10.9193 68.3439 10.4328 68.4187 10.1708L68.5684 10.8445C68.5684 10.8445 68.9801 12.6784 69.055 13.0527H67.3333V13.0152Z" fill="#3362AB"/>
<path d="M64.2644 13.2398C64.2644 14.8117 62.8421 15.8597 60.6339 15.8597C59.6983 15.8597 58.8 15.6725 58.3135 15.448L58.6129 13.7263L58.8749 13.8386C59.5486 14.138 59.9977 14.2503 60.8211 14.2503C61.4199 14.2503 62.0562 14.0257 62.0562 13.5018C62.0562 13.1649 61.7942 12.9404 60.9708 12.5661C60.1848 12.1918 59.1369 11.593 59.1369 10.5076C59.1369 9.01053 60.5965 8 62.655 8C63.441 8 64.1146 8.14971 64.5263 8.33684L64.2269 9.98363L64.0772 9.83392C63.703 9.68421 63.2164 9.5345 62.5053 9.5345C61.7193 9.57193 61.3451 9.90877 61.3451 10.2082C61.3451 10.545 61.7942 10.807 62.5053 11.1439C63.703 11.7053 64.2644 12.3415 64.2644 13.2398Z" fill="#3362AB"/>
<path d="M46 8.18731L46.0374 8.0376H49.2561C49.7053 8.0376 50.0421 8.18731 50.1544 8.67386L50.8655 12.0423C50.1544 10.2458 48.5076 8.78614 46 8.18731Z" fill="#F9B50B"/>
<path d="M55.3941 8.11213L52.138 15.7098H49.9298L48.0585 9.34722C49.4058 10.208 50.5286 11.5554 50.9403 12.4911L51.1649 13.277L53.186 8.07471H55.3941V8.11213Z" fill="#3362AB"/>
<path d="M56.255 8.07471H58.3135L57.0035 15.7098H54.9451L56.255 8.07471Z" fill="#3362AB"/>
<rect x="126.5" y="0.5" width="33" height="23" rx="3.5" fill="white" stroke="#D9D9D9"/>
<path d="M138.039 7H135.759C134.752 7.04971 133.928 7.47319 133.691 8.34647C133.567 8.80191 133.498 9.3021 133.401 9.77421C132.909 12.1748 132.471 14.6414 132 16.9941H149.751C151.124 16.9941 152.066 16.6914 152.321 15.5547C152.439 15.0267 152.552 14.4286 152.665 13.8484C153.107 11.5864 153.548 9.32459 154 7H138.039Z" fill="#B82126"/>
<path d="M147.198 12.9708C146.952 13.2223 146.261 13.2938 146.331 12.6926C146.39 12.1932 146.911 12.0871 147.476 12.1592C147.434 12.4324 147.386 12.7792 147.198 12.9708ZM146.42 11.023C146.397 11.1607 146.361 11.2854 146.331 11.4172C146.613 11.3434 147.491 11.1173 147.576 11.5099C147.604 11.6404 147.555 11.779 147.52 11.881C146.726 11.8025 146.079 11.9401 145.909 12.5302C145.795 12.9255 145.922 13.3145 146.165 13.423C146.632 13.6321 147.201 13.3926 147.398 13.0636C147.378 13.1775 147.358 13.2925 147.365 13.4346H147.776C147.78 13.0238 147.837 12.6912 147.898 12.3215C147.95 12.0067 148.047 11.695 148.031 11.4172C147.996 10.7808 146.986 11.0059 146.42 11.023ZM150.542 13.1679C150.22 13.1751 150.06 12.9674 150.053 12.623C150.04 12.0198 150.294 11.3497 150.809 11.2896C151.048 11.2617 151.222 11.3198 151.397 11.3824C151.236 12.0599 151.294 13.1511 150.542 13.1679ZM151.609 9.97949C151.568 10.3541 151.513 10.7144 151.442 11.0577C150.27 10.6707 149.551 11.5704 149.564 12.6809C149.567 12.8957 149.602 13.1087 149.731 13.2607C149.953 13.5225 150.588 13.5851 150.909 13.3651C150.971 13.3225 151.034 13.2449 151.075 13.1911C151.106 13.1506 151.155 13.0447 151.164 13.0751C151.147 13.1929 151.122 13.3018 151.12 13.4346H151.553C151.636 12.1845 151.895 11.1168 152.086 9.97949H151.609ZM139.377 12.9824C139.121 13.2649 138.493 13.2606 138.444 12.7853C138.422 12.5785 138.496 12.3616 138.532 12.1477C138.569 11.9311 138.596 11.7233 138.632 11.5331C138.884 11.2123 139.624 11.1736 139.699 11.7071C139.764 12.1702 139.588 12.7485 139.377 12.9824ZM139.755 11.023C139.35 10.8645 138.857 11.0537 138.644 11.2337C138.645 11.2416 138.639 11.2427 138.632 11.2433C138.636 11.2401 138.64 11.2369 138.644 11.2337C138.644 11.233 138.644 11.2324 138.644 11.2317C138.647 11.1543 138.673 11.1004 138.677 11.023H138.266C138.095 12.2123 137.891 13.3684 137.677 14.5129H138.155C138.224 14.0671 138.27 13.5969 138.366 13.1795C138.475 13.6186 139.187 13.5346 139.488 13.3651C140.108 13.015 140.587 11.3492 139.755 11.023ZM142.021 11.8578H140.899C140.934 11.5886 141.166 11.2927 141.532 11.2781C141.876 11.2643 142.123 11.4099 142.021 11.8578ZM141.565 10.9766C141.22 11.0043 140.928 11.108 140.721 11.336C140.467 11.6157 140.261 12.2339 140.321 12.7969C140.407 13.6001 141.365 13.5713 142.132 13.3766C142.145 13.2357 142.178 13.1152 142.199 12.9824C141.883 13.1057 141.335 13.2779 141.01 13.0636C140.765 12.9018 140.763 12.4921 140.843 12.136C141.358 12.1189 141.894 12.1222 142.41 12.136C142.442 11.8837 142.536 11.6085 142.454 11.3592C142.346 11.0301 141.959 10.945 141.565 10.9766ZM137.366 11.023C137.353 11.0249 137.354 11.0413 137.355 11.0577C137.25 11.8793 137.107 12.6621 136.955 13.4346H137.433C137.547 12.6075 137.679 11.7979 137.844 11.023H137.366ZM149.831 11.0346C149.409 10.8143 149.057 11.1839 148.92 11.4056C148.959 11.2918 148.961 11.1396 148.998 11.023H148.576C148.462 11.8511 148.325 12.6547 148.165 13.4346H148.653C148.656 13.115 148.717 12.8785 148.764 12.565C148.867 11.8957 149.017 11.1617 149.764 11.3824C149.789 11.2692 149.799 11.1408 149.831 11.0346ZM144.465 12.8665C144.421 12.7478 144.41 12.5517 144.421 12.4027C144.445 12.0677 144.562 11.6598 144.743 11.4752C144.992 11.2203 145.484 11.2625 145.876 11.4056C145.888 11.2676 145.915 11.1445 145.931 11.0114C145.288 10.9018 144.678 10.97 144.354 11.3244C144.037 11.6714 143.829 12.469 143.976 12.9708C144.148 13.5581 144.919 13.59 145.543 13.3651C145.57 13.247 145.585 13.1154 145.609 12.994C145.268 13.1789 144.617 13.275 144.465 12.8665ZM144.198 11.023C143.775 10.8444 143.442 11.1462 143.287 11.4288C143.322 11.3031 143.337 11.1558 143.365 11.023H142.943C142.84 11.8583 142.688 12.6425 142.543 13.4346H143.021C143.088 12.9644 143.117 12.3307 143.265 11.881C143.384 11.5216 143.695 11.2154 144.143 11.3824C144.149 11.2498 144.186 11.1486 144.198 11.023ZM136.499 10.049C136.431 10.5112 136.354 10.9643 136.277 11.4172C135.782 11.4226 135.277 11.4427 134.8 11.4056C134.89 10.9625 134.954 10.4928 135.044 10.049H134.511C134.32 11.1793 134.146 12.3276 133.933 13.4346H134.477C134.563 12.8667 134.643 12.293 134.755 11.7534C135.219 11.7415 135.776 11.7207 136.222 11.765C136.13 12.3261 136.019 12.8671 135.933 13.4346H136.477C136.652 12.2877 136.836 11.1505 137.055 10.049H136.499ZM137.855 10.5592C137.95 10.4908 138.073 10.1789 137.933 10.049C137.888 10.0079 137.814 9.99601 137.71 10.0143C137.614 10.0312 137.559 10.0653 137.521 10.1186C137.461 10.2044 137.406 10.4631 137.499 10.5592C137.59 10.6528 137.794 10.6027 137.855 10.5592Z" fill="white"/>
<rect x="168.5" y="0.5" width="33" height="23" rx="3.5" fill="white" stroke="#D9D9D9"/>
<path d="M184.016 9.27158H184.016L182.4 16.0042H182.5V16.004V11.0883C182.5 10.2876 183.177 9.63003 184.015 9.63C184.016 9.63 184.016 9.63 184.016 9.63L185.52 9.63202C185.52 9.63202 185.52 9.63202 185.52 9.63202C186.357 9.63372 187.031 10.2905 187.031 11.0883V11.0883V12.1345C187.031 12.9352 186.354 13.593 185.515 13.593H183.388C183.291 13.593 183.206 13.6699 183.206 13.7722C183.206 13.8746 183.291 13.9514 183.388 13.9514H185.515H185.515C186.548 13.9512 187.395 13.1398 187.395 12.1345V11.0883C187.395 10.0861 186.551 9.27574 185.521 9.27361L185.521 9.27361L184.016 9.27158Z" fill="#3D3D3D" stroke="#3D3D3D" stroke-width="0.2"/>
<path d="M188.801 13.7948C188.801 13.8971 188.886 13.974 188.983 13.974C189.08 13.974 189.165 13.8971 189.165 13.7948V10.1229C189.165 9.65005 188.767 9.27158 188.286 9.27158H187.633C187.536 9.27158 187.451 9.3484 187.451 9.45079C187.451 9.55318 187.536 9.63 187.633 9.63H188.286C188.573 9.63 188.801 9.85457 188.801 10.1229V13.7948Z" fill="#3D3D3D" stroke="#3D3D3D" stroke-width="0.2"/>
<path d="M188.843 8.88064L188.547 8.59494C188.473 8.52433 188.473 8.40945 188.547 8.33859L188.843 8.05314C188.916 7.98229 189.036 7.98229 189.109 8.05314L189.405 8.33859C189.478 8.40919 189.478 8.52408 189.405 8.59494L189.108 8.88064C189.034 8.95149 188.915 8.95149 188.842 8.88064" fill="#32BCAD"/>
<path d="M191.899 9.67277L191.899 9.67273C191.627 9.41101 191.266 9.26719 190.884 9.26719H190.884H190.884H190.884H190.884H190.884H190.884H190.884H190.884H190.884H190.884H190.884H190.884H190.884H190.884H190.884H190.884H190.884H190.884H190.884H190.884H190.884H190.884H190.884H190.884H190.884H190.884H190.884H190.884H190.884H190.884H190.884H190.884H190.884H190.884H190.884H190.884H190.884H190.884H190.884H190.884H190.884H190.884H190.884H190.884H190.884H190.884H190.884H190.884H190.884H190.884H190.884H190.884H190.884H190.884H190.884H190.884H190.884H190.884H190.884H190.884H190.884H190.884H190.884H190.884H190.884H190.884H190.884H190.884H190.884H190.884H190.884H190.884H190.884H190.884H190.884H190.884H190.884H190.884H190.884H190.884H190.884H190.884H190.884H190.884H190.884H190.884H190.884H190.884H190.884H190.884H190.884H190.884H190.884H190.884H190.884H190.884H190.884H190.884H190.884H190.884H190.884H190.884H190.884H190.884H190.884H190.884H190.884H190.884H190.884H190.884H190.884H190.884H190.884H190.884H190.884H190.884H190.884H190.884H190.884H190.884H190.884H190.884H190.884H190.884H190.884H190.884H190.884H190.884H190.884H190.884H190.884H190.884H190.884H190.884H190.884H190.884H190.884H190.884H190.884H190.884H190.884H190.884H190.884H190.884H190.884H190.884H190.884H190.884H190.884H190.884H190.884H190.884H190.884H190.884H190.884H190.884H190.884H190.884H190.884H190.884H190.884H190.884H190.884H190.884H190.884H190.884H190.884H190.884H190.884H190.884H190.884H190.884H190.884H190.884H190.884H190.884H190.884H190.884H190.884H190.884H190.884H190.884H190.884H190.884H190.884H190.884H190.884H190.884H190.884H190.884H190.884H190.884H190.884H190.884H190.884H190.884H190.884H190.884H190.884H190.884H190.884H190.884H190.884H190.884H190.884H190.884H190.884H190.884H190.884H190.884H190.884H190.884H190.884H190.884H190.884H190.884H190.884H190.884H190.884H190.884H190.884H190.884H190.884H190.884H190.884H190.884H190.884H190.884H190.884H190.884H190.884H190.884H190.884H190.884H190.884H190.884H190.884H190.884H190.884H190.884H190.884H190.884H190.884H190.884H190.884H190.884H190.884H190.884H190.884H190.884H190.884H190.884H190.884H190.884H190.884H190.884H190.884H190.884H190.884H190.884H190.884H190.884H190.884H190.884H190.884H190.884H190.884H190.884H190.884H190.884H190.884H190.884H190.884H190.884H190.884H190.884H190.884H190.884H190.884H190.884H190.884H190.884H190.884H190.884H190.884H190.884H190.884H190.884H190.884H190.884H190.884H190.884H190.884H190.884H190.884H190.884H190.884H190.884H190.884H190.884H190.884H190.884H190.884H190.884H190.884H190.884H190.884H190.884H190.884H190.884H190.884H190.884H190.884H190.884H190.884H190.884H190.884H190.884H190.884H190.884H190.884H190.884H190.884H190.884H190.884H190.884H190.884H190.884H190.884H190.884H190.884H190.884H190.884H190.884H190.884H190.884H190.884H190.884H190.884H190.884H190.884H190.884H190.884H190.884H190.884H190.884H190.884H190.884H190.884H190.884H190.884H190.884H190.884H190.884H190.884H190.884H190.884H190.883H190.883H190.883H190.883H190.883H190.883H190.883H190.883H190.883H190.883H190.883H190.883H190.883H190.883H190.883H190.883H190.883H190.883H190.883H190.883H190.883H190.883H190.883H190.883H190.883H190.883H190.883H190.883H190.883H190.883H190.883H190.883H190.883H190.883H190.883H190.883H190.883H190.883H190.883H190.883H190.883H190.883H190.883H190.883H190.883H190.883H190.883H190.883H190.883H190.883H190.883H190.883H190.883H190.883H190.883H190.883H190.883H190.883H190.883H190.883H190.883H190.883H190.883H190.883H190.883H190.883H190.883H190.883H190.883H190.883H190.883H190.883H190.883H190.883H190.883H190.883H190.883H190.883H190.883H190.883H190.883H190.883H190.883H190.883H190.883H190.883H190.883H190.883H190.883H190.883H190.883H190.883H190.883H190.883H190.883H190.883H190.883H190.883H190.883H190.883H190.883H190.883H190.236C190.139 9.26719 190.054 9.34401 190.054 9.44639C190.054 9.54878 190.139 9.6256 190.236 9.6256H190.883H190.883H190.883H190.883H190.883H190.883H190.883H190.883H190.883H190.883H190.883H190.883H190.883H190.883H190.883H190.883H190.883H190.883H190.883H190.883H190.883H190.883H190.883H190.883H190.883H190.883H190.883H190.883H190.883H190.883H190.883H190.883H190.883H190.883H190.883H190.883H190.883H190.883H190.883H190.883H190.883H190.883H190.883H190.883H190.883H190.883H190.883H190.883H190.883H190.883H190.883H190.883H190.883H190.883H190.883H190.883H190.883H190.883H190.883H190.883H190.883H190.883H190.883H190.883H190.883H190.883H190.883H190.883H190.883H190.883H190.883H190.883H190.883H190.883H190.883H190.883H190.883H190.883H190.883H190.883H190.883H190.883H190.883H190.883H190.883H190.883H190.883H190.883H190.883H190.883H190.883H190.883H190.883H190.883H190.883H190.883H190.883H190.883H190.883H190.883H190.883H190.883H190.883H190.883H190.883H190.883H190.883H190.883H190.883H190.883H190.883H190.883H190.883H190.883H190.883H190.883H190.883H190.883H190.883H190.883H190.883H190.883H190.883H190.883H190.883H190.883H190.883H190.884H190.884H190.884H190.884H190.884H190.884H190.884H190.884H190.884H190.884H190.884H190.884H190.884H190.884H190.884H190.884H190.884H190.884H190.884H190.884H190.884H190.884H190.884H190.884H190.884H190.884H190.884H190.884H190.884H190.884H190.884H190.884H190.884H190.884H190.884H190.884H190.884H190.884H190.884H190.884H190.884H190.884H190.884H190.884H190.884H190.884H190.884H190.884H190.884H190.884H190.884H190.884H190.884H190.884H190.884H190.884H190.884H190.884H190.884H190.884H190.884H190.884H190.884H190.884H190.884H190.884H190.884H190.884H190.884H190.884H190.884H190.884H190.884H190.884H190.884H190.884H190.884H190.884H190.884H190.884H190.884H190.884H190.884H190.884H190.884H190.884H190.884H190.884H190.884H190.884H190.884H190.884H190.884H190.884H190.884H190.884H190.884H190.884H190.884H190.884H190.884H190.884H190.884H190.884H190.884H190.884H190.884H190.884H190.884H190.884H190.884H190.884H190.884H190.884H190.884H190.884H190.884H190.884H190.884H190.884H190.884H190.884H190.884H190.884H190.884H190.884H190.884H190.884H190.884H190.884H190.884H190.884H190.884H190.884H190.884H190.884H190.884H190.884H190.884H190.884H190.884H190.884H190.884H190.884H190.884H190.884H190.884H190.884H190.884H190.884H190.884H190.884H190.884H190.884H190.884H190.884H190.884H190.884H190.884H190.884H190.884H190.884H190.884H190.884H190.884H190.884H190.884H190.884H190.884H190.884H190.884H190.884H190.884H190.884H190.884H190.884H190.884H190.884H190.884H190.884H190.884H190.884H190.884H190.884H190.884H190.884H190.884H190.884H190.884H190.884H190.884H190.884H190.884H190.884H190.884H190.884H190.884H190.884H190.884H190.884H190.884H190.884H190.884H190.884H190.884H190.884H190.884H190.884H190.884H190.884H190.884H190.884H190.884H190.884H190.884H190.884H190.884H190.884H190.884H190.884H190.884H190.884H190.884H190.884H190.884H190.884H190.884H190.884H190.884H190.884H190.884H190.884H190.884H190.884H190.884H190.884H190.884H190.884H190.884H190.884H190.884H190.884H190.884H190.884H190.884H190.884H190.884H190.884H190.884H190.884H190.884H190.884H190.884H190.884H190.884H190.884H190.884H190.884H190.884H190.884H190.884H190.884H190.884H190.884H190.884H190.884H190.884H190.884H190.884H190.884H190.884H190.884H190.884H190.884H190.884H190.884H190.884H190.884H190.884H190.884H190.884H190.884H190.884H190.884H190.884H190.884H190.884H190.884H190.884H190.884H190.884H190.884H190.884H190.884H190.884H190.884H190.884H190.884H190.884H190.884H190.884H190.884H190.884H190.884H190.884H190.884H190.884H190.884H190.884H190.884H190.884H190.884H190.884H190.884H190.884H190.884H190.884H190.884H190.884H190.884H190.884H190.884H190.884H190.884H190.884H190.884H190.884H190.884H190.884H190.884H190.884H190.884H190.884H190.884H190.884H190.884H190.884H190.884H190.884H190.884H190.884H190.884H190.884H190.884H190.884H190.884H190.884H190.884H190.884H190.884H190.884H190.884H190.884H190.884H190.884H190.884H190.884H190.884H190.884H190.884H190.884H190.884H190.884H190.884H190.884H190.884H190.884H190.884H190.884H190.884H190.884H190.884H190.884H190.884H190.884H190.884H190.884H190.884H190.884H190.884H190.884H190.884H190.884H190.884H190.884H190.884C191.172 9.6256 191.441 9.73338 191.644 9.92858L193.158 11.3889L193.227 11.317L193.158 11.389L193.158 11.3889C193.292 11.5182 193.467 11.582 193.641 11.582C193.814 11.582 193.989 11.5185 194.122 11.39L194.123 11.3892L194.123 11.3892L195.631 9.93444C195.834 9.73939 196.103 9.63142 196.391 9.63142H196.391H196.391H196.391H196.391H196.391H196.391H196.391H196.391H196.391H196.391H196.391H196.391H196.391H196.391H196.391H196.391H196.391H196.391H196.391H196.391H196.391H196.391H196.391H196.391H196.391H196.391H196.391H196.391H196.391H196.391H196.391H196.391H196.391H196.391H196.391H196.391H196.391H196.391H196.391H196.391H196.391H196.391H196.391H196.391H196.391H196.391H196.391H196.391H196.391H196.391H196.391H196.391H196.391H196.391H196.391H196.391H196.391H196.391H196.391H196.391H196.391H196.391H196.391H196.391H196.391H196.391H196.391H196.391H196.391H196.391H196.391H196.391H196.391H196.391H196.391H196.391H196.391H196.391H196.391H196.391H196.391H196.391H196.391H196.391H196.391H196.391H196.391H196.391H196.391H196.391H196.391H196.391H196.391H196.391H196.391H196.391H196.391H196.391H196.391H196.391H196.391H196.391H196.391H196.391H196.391H196.391H196.391H196.391H196.391H196.391H196.391H196.391H196.391H196.391H196.391H196.391H196.391H196.391H196.392H196.392H196.392H196.392H196.392H196.392H196.392H196.392H196.392H196.392H196.392H196.392H196.392H196.392H196.392H196.392H196.392H196.392H196.392H196.392H196.392H196.392H196.392H196.392H196.392H196.392H196.392H196.392H196.392H196.392H196.392H196.392H196.392H196.392H196.392H196.392H196.392H196.392H196.392H196.392H196.392H196.392H196.392H196.392H196.392H196.392H196.392H196.392H196.392H196.392H196.392H196.392H196.918C197.015 9.63142 197.1 9.5546 197.1 9.45221C197.1 9.34983 197.015 9.27301 196.918 9.27301H196.392H196.392H196.392H196.392H196.392H196.392H196.392H196.392H196.392H196.392H196.392H196.392H196.392H196.392H196.392H196.392H196.392H196.392H196.392H196.392H196.392H196.392H196.392H196.392H196.392H196.392H196.392H196.392H196.392H196.392H196.392H196.392H196.392H196.392H196.392H196.392H196.392H196.392H196.392H196.392H196.392H196.392H196.392H196.392H196.392H196.392H196.392H196.392H196.392H196.392H196.392H196.392H196.392H196.391H196.391H196.391H196.391H196.391H196.391H196.391H196.391H196.391H196.391H196.391H196.391H196.391H196.391H196.391H196.391H196.391H196.391H196.391H196.391H196.391H196.391H196.391H196.391H196.391H196.391H196.391H196.391H196.391H196.391H196.391H196.391H196.391H196.391H196.391H196.391H196.391H196.391H196.391H196.391H196.391H196.391H196.391H196.391H196.391H196.391H196.391H196.391H196.391H196.391H196.391H196.391H196.391H196.391H196.391H196.391H196.391H196.391H196.391H196.391H196.391H196.391H196.391H196.391H196.391H196.391H196.391H196.391H196.391H196.391H196.391H196.391H196.391H196.391H196.391H196.391H196.391H196.391H196.391H196.391H196.391H196.391H196.391H196.391H196.391H196.391H196.391H196.391H196.391H196.391H196.391H196.391H196.391H196.391H196.391H196.391H196.391H196.391H196.391H196.391H196.391H196.391H196.391H196.391H196.391H196.391H196.391H196.391H196.391H196.391H196.391H196.391H196.391H196.391H196.391H196.391H196.391H196.391C196.009 9.27301 195.648 9.41683 195.377 9.67858C195.377 9.67859 195.377 9.67859 195.377 9.67859L193.869 11.1329L193.869 11.1329L193.868 11.1336C193.868 11.1336 193.868 11.1336 193.868 11.1336C193.743 11.2539 193.538 11.2538 193.413 11.1332L191.899 9.67277Z" fill="#3D3D3D" stroke="#3D3D3D" stroke-width="0.2"/>
<path d="M194.123 11.8187L194.123 11.8187L195.632 13.2738C195.834 13.469 196.104 13.5768 196.391 13.5768H196.392H196.918C197.015 13.5768 197.1 13.6536 197.1 13.756C197.1 13.8584 197.015 13.9352 196.918 13.9352H196.392H196.392H196.392H196.392H196.392H196.392H196.392H196.392H196.392H196.392H196.392H196.392H196.392H196.392H196.392H196.392H196.392H196.392H196.392H196.392H196.392H196.392H196.392H196.392H196.392H196.392H196.392H196.392H196.392H196.392H196.392H196.392H196.392H196.392H196.392H196.392H196.392H196.392H196.392H196.392H196.392H196.392H196.392H196.392H196.392H196.392H196.392H196.392H196.392H196.392H196.392H196.392H196.392H196.392H196.392H196.392H196.392H196.392H196.392H196.392H196.391H196.391H196.391H196.391H196.391H196.391H196.391H196.391H196.391H196.391H196.391H196.391H196.391H196.391H196.391H196.391H196.391H196.391H196.391H196.391H196.391H196.391H196.391H196.391H196.391H196.391H196.391H196.391H196.391H196.391H196.391H196.391H196.391H196.391H196.391H196.391H196.391H196.391H196.391H196.391H196.391H196.391H196.391H196.391H196.391H196.391H196.391H196.391H196.391H196.391H196.391H196.391H196.391H196.391H196.391H196.391H196.391H196.391H196.391H196.391H196.391H196.391H196.391H196.391H196.391C196.009 13.9352 195.648 13.7914 195.376 13.5297L195.376 13.5296L193.868 12.0745C193.743 11.9541 193.538 11.954 193.412 12.0745L194.123 11.8187ZM194.123 11.8187C193.856 11.5621 193.424 11.5617 193.158 11.8187L191.644 13.2791C191.644 13.2791 191.644 13.2791 191.644 13.2791C191.644 13.2791 191.644 13.2791 191.644 13.2791C191.441 13.4741 191.172 13.5821 190.884 13.5821H190.883H190.236C190.139 13.5821 190.054 13.6589 190.054 13.7613C190.054 13.8637 190.139 13.9405 190.236 13.9405H190.883H190.883H190.883H190.883H190.883H190.883H190.883H190.883H190.883H190.883H190.883H190.883H190.883H190.883H190.883H190.883H190.883H190.883H190.883H190.883H190.883H190.883H190.883H190.883H190.883H190.883H190.883H190.883H190.883H190.883H190.883H190.883H190.883H190.883H190.883H190.883H190.883H190.883H190.883H190.883H190.883H190.883H190.883H190.883H190.883H190.883H190.883H190.883H190.883H190.883H190.883H190.884H190.884H190.884H190.884H190.884H190.884H190.884H190.884H190.884H190.884H190.884H190.884H190.884H190.884H190.884H190.884H190.884H190.884H190.884H190.884H190.884H190.884H190.884H190.884H190.884H190.884H190.884H190.884H190.884H190.884H190.884H190.884H190.884H190.884H190.884H190.884H190.884H190.884H190.884H190.884H190.884H190.884H190.884H190.884H190.884H190.884H190.884H190.884H190.884H190.884H190.884H190.884H190.884H190.884H190.884H190.884H190.884H190.884H190.884H190.884H190.884H190.884H190.884H190.884H190.884H190.884H190.884H190.884H190.884H190.884H190.884H190.884H190.884H190.884H190.884H190.884H190.884H190.884H190.884H190.884H190.884H190.884H190.884H190.884H190.884H190.884H190.884H190.884H190.884H190.884H190.884H190.884H190.884H190.884H190.884H190.884H190.884H190.884H190.884H190.884H190.884H190.884H190.884H190.884H190.884H190.884H190.884H190.884H190.884H190.884H190.884H190.884H190.884H190.884H190.884H190.884H190.884H190.884H190.884H190.884H190.884H190.884H190.884H190.884H190.884H190.884H190.884H190.884H190.884H190.884H190.884H190.884H190.884H190.884H190.884H190.884H190.884H190.884H190.884H190.884H190.884H190.884H190.884H190.884H190.884H190.884H190.884H190.884H190.884H190.884H190.884H190.884H190.884H190.884C191.266 13.9405 191.627 13.7967 191.898 13.5349L193.412 12.0746L194.123 11.8187Z" fill="#3D3D3D" stroke="#3D3D3D" stroke-width="0.2"/>
<path d="M178.459 14.6939C178.136 14.6949 177.826 14.5717 177.599 14.3515L176.356 13.1526C176.265 13.0683 176.121 13.0683 176.03 13.1526L174.783 14.3548C174.555 14.5755 174.246 14.699 173.923 14.6982H173.68L175.254 16.2166C175.746 16.6898 176.542 16.6898 177.033 16.2166L178.611 14.6949L178.459 14.6939Z" fill="#32BCAD"/>
<path d="M173.923 10.4571C174.246 10.4563 174.556 10.5798 174.783 10.8005L176.03 12.003C176.12 12.0898 176.266 12.0898 176.356 12.003L177.599 10.805C177.826 10.5841 178.136 10.4603 178.459 10.4614H178.608L177.031 8.93999C176.54 8.46601 175.743 8.46601 175.252 8.93973L175.252 8.93999L173.68 10.4571H173.923Z" fill="#32BCAD"/>
<path d="M179.913 11.7208L178.96 10.8014C178.938 10.8098 178.915 10.8143 178.892 10.8146H178.459C178.233 10.8151 178.017 10.9016 177.857 11.055L176.615 12.2522C176.382 12.4764 176.005 12.4764 175.772 12.2522L174.525 11.0504C174.365 10.8968 174.149 10.8103 173.923 10.8098H173.391C173.369 10.8093 173.348 10.8052 173.327 10.7974L172.368 11.7208C171.877 12.195 171.877 12.9625 172.368 13.4367L173.325 14.3599C173.346 14.352 173.367 14.3477 173.389 14.3475H173.923C174.149 14.3467 174.365 14.2604 174.525 14.1068L175.772 12.9046C175.997 12.6874 176.39 12.6874 176.615 12.9046L177.857 14.1023C178.017 14.2556 178.233 14.3422 178.459 14.3427H178.892C178.915 14.3429 178.938 14.3472 178.96 14.3558L179.913 13.4365C180.404 12.9628 180.404 12.1947 179.913 11.7208C179.913 11.7208 179.913 11.7208 179.913 11.7208Z" fill="#32BCAD"/>
<rect x="0.5" y="0.5" width="33" height="23" rx="3.5" fill="white" stroke="#D9D9D9"/>
<path d="M29 11.0564C29 6.83428 23.6836 3.39224 17.1269 3.39224C10.5692 3.39224 5.25465 6.83428 5.25465 11.0564C5.25465 11.1654 5.25375 11.4677 5.25375 11.5058C5.25375 15.9841 9.89917 19.6123 17.1251 19.6123C24.3968 19.6123 29 15.9859 29 11.5058V11.0564Z" fill="#28316B"/>
<path d="M28.5448 11.0516C28.5448 15.0318 23.435 18.2593 17.1288 18.2593C10.8245 18.2593 5.71378 15.0318 5.71378 11.0516C5.71378 7.07065 10.8245 3.84312 17.1288 3.84312C23.435 3.84312 28.5448 7.07065 28.5448 11.0516Z" fill="#50B4E9"/>
<path d="M13.3387 8.77834C13.3325 8.78986 13.2184 8.90687 13.292 8.99906C13.4726 9.22688 14.0295 9.3563 14.5926 9.23219C14.9276 9.15773 15.3561 8.82089 15.7719 8.49556C16.2228 8.14187 16.671 7.7873 17.1201 7.64724C17.5962 7.49743 17.9006 7.56126 18.1027 7.62065C18.3237 7.68713 18.5842 7.82985 18.9982 8.13744C19.7796 8.71717 22.9206 11.4226 23.4622 11.8906C23.9005 11.6956 25.8424 10.8694 28.4822 10.2968C28.2531 8.90776 27.3963 7.6366 26.0984 6.59593C24.2894 7.34585 22.0781 7.73766 19.9162 6.69432C19.9054 6.69166 18.7351 6.14384 17.58 6.17132C15.8644 6.21032 15.1207 6.94341 14.3339 7.71904L13.3387 8.77834Z" fill="white"/>
<path d="M23.3355 12.1846C23.2987 12.1527 19.6431 8.99435 18.814 8.38005C18.3353 8.02547 18.0685 7.93505 17.7883 7.8996C17.6419 7.88187 17.4416 7.90758 17.2997 7.94658C16.9153 8.04941 16.4114 8.38182 15.9641 8.73108C15.5006 9.09629 15.0641 9.43846 14.659 9.52887C14.1417 9.64322 13.5093 9.5076 13.2201 9.31524C13.1034 9.23812 13.0216 9.1477 12.9821 9.05729C12.8752 8.81263 13.0719 8.6185 13.1034 8.58482L14.1129 7.50868C14.2297 7.39344 14.3482 7.27732 14.4695 7.16297C14.1444 7.20552 13.8435 7.28795 13.5498 7.36773C13.1842 7.46967 12.833 7.56541 12.4764 7.56541C12.3282 7.56541 11.5324 7.43776 11.3815 7.39699C10.469 7.14878 9.6669 6.91033 8.47051 6.35808C7.03611 7.41206 6.07684 8.73019 5.8002 10.1813C6.00589 10.2354 6.33732 10.332 6.47654 10.3621C9.72348 11.0748 10.7339 11.8088 10.9181 11.9621C11.1166 11.7441 11.4022 11.6058 11.7219 11.6058C12.0821 11.6076 12.4055 11.7849 12.6022 12.0597C12.7881 11.9143 13.0441 11.792 13.3755 11.792C13.5255 11.792 13.6818 11.8185 13.8399 11.8717C14.2063 11.9949 14.3949 12.2361 14.4929 12.455C14.6159 12.3992 14.7668 12.3584 14.9446 12.3593C15.1198 12.3593 15.3021 12.3983 15.4844 12.4763C16.0826 12.7298 16.1761 13.3113 16.1222 13.7483C16.1653 13.743 16.2066 13.7412 16.2515 13.7412C16.9602 13.7421 17.5386 14.3103 17.5377 15.0115C17.5377 15.2287 17.4811 15.4317 17.3841 15.6116C17.5772 15.718 18.0694 15.9609 18.5006 15.9068C18.8464 15.8634 18.9775 15.7472 19.0242 15.6816C19.0565 15.6373 19.0907 15.5841 19.0583 15.546L18.144 14.5417C18.144 14.5417 17.9922 14.4016 18.0416 14.3467C18.0937 14.2917 18.1871 14.3715 18.2536 14.4256C18.7179 14.8103 19.2883 15.3891 19.2883 15.3891C19.2972 15.3962 19.3359 15.4689 19.5452 15.5061C19.7266 15.538 20.0472 15.5203 20.27 15.3404C20.3257 15.2952 20.3823 15.2375 20.429 15.1799C20.4254 15.1826 20.4218 15.1861 20.4182 15.1879C20.6526 14.8918 20.3921 14.5922 20.3921 14.5922L19.3233 13.4079C19.3233 13.4079 19.1697 13.2679 19.2218 13.2111C19.2685 13.1633 19.3673 13.2368 19.4338 13.2918C19.7724 13.5701 20.2511 14.0453 20.7092 14.4885C20.799 14.5523 21.2023 14.7988 21.7358 14.453C22.0592 14.243 22.1238 13.9859 22.1158 13.7909C22.0924 13.5338 21.8894 13.3503 21.8894 13.3503L20.429 11.9019C20.429 11.9019 20.2745 11.7716 20.3284 11.706C20.3733 11.6501 20.473 11.7299 20.5394 11.7849C21.0047 12.1687 22.2649 13.3086 22.2649 13.3086C22.2819 13.3211 22.7184 13.6269 23.2547 13.2883C23.4478 13.1668 23.5708 12.9842 23.5807 12.7724C23.5996 12.4027 23.3355 12.1846 23.3355 12.1846Z" fill="white"/>
<path d="M16.2509 14.0214C16.0246 14.0187 15.7776 14.1517 15.7443 14.1322C15.7264 14.1207 15.7587 14.0311 15.7802 13.9788C15.8009 13.9283 16.0991 13.0427 15.3725 12.7343C14.8156 12.4985 14.4761 12.7635 14.3593 12.8841C14.3279 12.9151 14.3144 12.9124 14.3108 12.8726C14.3 12.713 14.2282 12.2813 13.7477 12.1368C13.0605 11.9303 12.6195 12.4027 12.5073 12.5729C12.4579 12.1873 12.1273 11.8877 11.7222 11.8868C11.2821 11.8868 10.9247 12.2387 10.9247 12.6731C10.9247 13.1066 11.2812 13.4585 11.7213 13.4585C11.9351 13.4594 12.1291 13.3752 12.2719 13.2395C12.2764 13.244 12.2782 13.2511 12.2755 13.2661C12.2423 13.4603 12.1812 14.1668 12.9312 14.4548C13.2321 14.5701 13.4872 14.4841 13.6991 14.3369C13.762 14.2935 13.7719 14.3121 13.7629 14.3706C13.736 14.5524 13.7701 14.9415 14.3234 15.1622C14.7437 15.3315 14.9925 15.1587 15.1551 15.0098C15.2261 14.9459 15.2458 14.9575 15.2503 15.055C15.2692 15.5815 15.712 15.9981 16.25 15.999C16.8033 15.999 17.2524 15.5576 17.2524 15.0115C17.2524 14.4646 16.8042 14.0276 16.2509 14.0214Z" fill="white"/>
<path d="M16.2509 15.9287C15.7488 15.9287 15.341 15.5431 15.3231 15.0538C15.3213 15.0113 15.3168 14.8996 15.2216 14.8996C15.182 14.8996 15.147 14.9226 15.1084 14.9572C14.997 15.0591 14.8569 15.1611 14.6521 15.1611C14.5587 15.1611 14.4581 15.1398 14.3512 15.0972C13.8213 14.8854 13.8141 14.5255 13.8357 14.381C13.841 14.3429 13.8428 14.303 13.8168 14.272L13.7836 14.2436H13.7512C13.7243 14.2436 13.6955 14.2534 13.6587 14.28C13.5051 14.3863 13.3578 14.4369 13.2087 14.4369C13.1261 14.4369 13.0426 14.4218 12.9572 14.389C12.2602 14.1213 12.315 13.4715 12.3492 13.2756C12.3537 13.2357 12.3438 13.2056 12.3186 13.1843L12.2692 13.1435L12.2234 13.1879C12.0869 13.3182 11.909 13.3882 11.7222 13.3882C11.3234 13.3882 10.9974 13.0673 10.9974 12.6728C10.9974 12.2784 11.3243 11.9584 11.7231 11.9584C12.0842 11.9584 12.3923 12.2261 12.4381 12.5833L12.4632 12.7748L12.5692 12.6126C12.5818 12.5931 12.8746 12.156 13.4135 12.156C13.515 12.156 13.621 12.1738 13.727 12.2057C14.1572 12.3342 14.2291 12.718 14.2407 12.8794C14.2488 12.9725 14.3153 12.9769 14.3288 12.9769C14.3647 12.9769 14.3934 12.9538 14.4123 12.9334C14.4931 12.8492 14.6692 12.711 14.9458 12.711C15.0725 12.7118 15.2063 12.7402 15.3446 12.7996C16.0272 13.0886 15.7174 13.9449 15.7138 13.9529C15.6554 14.0947 15.6536 14.1576 15.7084 14.1931L15.7353 14.2064H15.7551C15.7856 14.2064 15.8233 14.1931 15.8871 14.1718C15.9796 14.1399 16.1197 14.0929 16.2509 14.0929H16.2518C16.7646 14.0991 17.1823 14.5104 17.1823 15.0121C17.1814 15.5174 16.7637 15.9287 16.2509 15.9287ZM23.4768 11.8077C22.3514 10.837 19.7484 8.6032 19.0424 8.08108C18.6401 7.78235 18.3652 7.62368 18.1245 7.55365C18.0158 7.52174 17.8658 7.48451 17.6727 7.48451C17.494 7.48451 17.3018 7.51642 17.0997 7.57936C16.6434 7.72119 16.1907 8.07754 15.7506 8.42148L15.729 8.4392C15.3195 8.76009 14.8973 9.09251 14.5776 9.16254C14.4374 9.19356 14.2937 9.20952 14.1509 9.20952C13.7925 9.20952 13.471 9.10758 13.3506 8.95511C13.33 8.93029 13.3435 8.8904 13.3893 8.83101L13.3955 8.82303L14.3862 7.76906C15.1623 7.00406 15.8952 6.27984 17.5829 6.24172C17.6107 6.24084 17.6395 6.23995 17.6673 6.23995C18.7173 6.24172 19.7673 6.70533 19.8849 6.75852C20.8703 7.23365 21.8861 7.47476 22.9082 7.47565C23.9735 7.47565 25.072 7.21503 26.227 6.69026C26.0977 6.583 25.963 6.47929 25.8255 6.37646C24.8106 6.81082 23.8441 7.03065 22.9109 7.03065C21.958 7.02888 21.0059 6.80284 20.0825 6.35785C20.0331 6.33568 18.8745 5.79496 17.6673 5.79496C17.6359 5.79496 17.6044 5.79496 17.573 5.79584C16.1557 5.82864 15.3572 6.32593 14.8201 6.76029C14.2973 6.77359 13.8473 6.89769 13.4467 7.00849C13.0884 7.106 12.7803 7.1911 12.4794 7.1911C12.3545 7.1911 12.1318 7.18046 12.112 7.17957C11.7653 7.16894 10.0202 6.74699 8.63157 6.22754C8.48965 6.32682 8.35313 6.42876 8.2211 6.53336C9.67167 7.1193 11.4366 7.57404 11.9935 7.60861C12.148 7.62013 12.3132 7.63698 12.4785 7.63698C12.8468 7.63698 13.2141 7.53504 13.5707 7.43753C13.7809 7.37814 14.0126 7.3152 14.256 7.26822C14.1913 7.33204 14.1267 7.39587 14.0611 7.46058L13.0542 8.53494C12.9761 8.61383 12.8027 8.8248 12.9168 9.08453C12.9617 9.18913 13.0524 9.2893 13.1818 9.3744C13.4216 9.53396 13.8509 9.64122 14.2497 9.64122C14.4006 9.6421 14.5452 9.62703 14.6764 9.59689C15.0985 9.5047 15.5404 9.15633 16.0093 8.78846C16.3829 8.49505 16.9137 8.12363 17.3197 8.01371C17.4338 7.98357 17.5739 7.96496 17.6862 7.96496C17.7194 7.96585 17.7509 7.96585 17.7796 7.96939C18.0482 8.00396 18.3086 8.09349 18.7721 8.43743C19.5984 9.04996 23.2549 12.2075 23.2909 12.2385C23.2936 12.2403 23.5262 12.4379 23.51 12.7695C23.501 12.953 23.3978 13.1161 23.2181 13.2295C23.0618 13.327 22.9002 13.3767 22.7385 13.3767C22.4933 13.3767 22.3253 13.2632 22.3145 13.2552C22.3002 13.2446 21.0481 12.1108 20.5864 11.7306C20.5137 11.6703 20.4427 11.6162 20.3709 11.6162C20.3313 11.6162 20.2972 11.6322 20.2739 11.6605C20.2011 11.7492 20.2828 11.8715 20.3789 11.9522L21.843 13.4024C21.8448 13.4041 22.0253 13.5717 22.0442 13.7951C22.0559 14.0353 21.9391 14.2365 21.6966 14.3934C21.5241 14.506 21.3499 14.5627 21.1783 14.5627C20.9529 14.5627 20.7966 14.4617 20.7607 14.4369L20.5514 14.2339C20.167 13.8607 19.7709 13.4751 19.4817 13.2366C19.4107 13.1781 19.3353 13.1249 19.2634 13.1249C19.2275 13.1249 19.1951 13.1391 19.1709 13.1639C19.1377 13.2003 19.1143 13.265 19.1969 13.3731C19.2311 13.4183 19.2706 13.4547 19.2706 13.4547L20.3394 14.6381C20.3484 14.6496 20.5586 14.8969 20.3628 15.1433L20.3251 15.1912C20.2927 15.2258 20.2586 15.2568 20.2263 15.2852C20.0439 15.4332 19.8005 15.4483 19.7044 15.4483C19.6523 15.4483 19.602 15.4438 19.5598 15.4359C19.4538 15.4181 19.3829 15.3889 19.3496 15.349L19.337 15.3348C19.2778 15.2763 18.7398 14.7329 18.2943 14.3668C18.2359 14.319 18.1622 14.2569 18.0868 14.2569C18.0491 14.2569 18.0158 14.272 17.9907 14.2995C17.9017 14.3952 18.0338 14.5379 18.0904 14.5893L19.002 15.5804C19.0011 15.5892 18.9886 15.6105 18.9661 15.6415C18.9338 15.6867 18.8233 15.7958 18.4937 15.8365C18.4541 15.841 18.4128 15.8427 18.3724 15.8427C18.0311 15.8427 17.6682 15.6796 17.4805 15.5812C17.5667 15.404 17.6107 15.2089 17.6107 15.0121C17.6107 14.272 17.0018 13.6701 16.2518 13.6701C16.2356 13.6701 16.2194 13.6701 16.2024 13.671C16.2284 13.3332 16.1799 12.6932 15.5144 12.4122C15.3231 12.3298 15.1317 12.289 14.9458 12.289C14.8012 12.289 14.6611 12.3129 14.5291 12.3635C14.3925 12.0984 14.1635 11.9061 13.8644 11.8059C13.6991 11.7492 13.5357 11.7208 13.3767 11.7208C13.0991 11.7208 12.845 11.8006 12.6177 11.9601C12.3995 11.6933 12.0698 11.5346 11.7231 11.5346C11.4204 11.5346 11.1285 11.6543 10.9121 11.8662C10.6291 11.6517 9.50371 10.9469 6.49388 10.2724C6.34838 10.2404 6.01425 10.1456 5.80857 10.0862C5.77444 10.2467 5.74929 10.4089 5.73132 10.5729C5.73132 10.5729 6.2864 10.7041 6.39598 10.7289C9.47047 11.4035 10.4872 12.1037 10.6588 12.2358C10.6004 12.3741 10.5708 12.523 10.5699 12.6728C10.5699 13.3004 11.0863 13.8101 11.7222 13.811C11.7932 13.811 11.8632 13.8048 11.9333 13.7924C12.0294 14.2534 12.3348 14.6035 12.8027 14.7826C12.9384 14.8349 13.0776 14.8615 13.2132 14.8615C13.3012 14.8615 13.3884 14.8508 13.4755 14.8295C13.5617 15.0449 13.7566 15.3153 14.1904 15.4891C14.3431 15.5493 14.4949 15.5804 14.6431 15.5804C14.7644 15.5804 14.8829 15.56 14.9952 15.5192C15.2036 16.02 15.6985 16.3516 16.2509 16.3516C16.6164 16.3524 16.9676 16.2053 17.2245 15.9447C17.4437 16.0644 17.9071 16.2815 18.3742 16.2824C18.4353 16.2824 18.4919 16.2798 18.5493 16.2727C19.0137 16.2142 19.2293 16.0351 19.329 15.8959C19.3469 15.8711 19.3631 15.8445 19.3766 15.8188C19.487 15.8498 19.6065 15.8747 19.7457 15.8747C19.999 15.8747 20.2424 15.7904 20.4894 15.6132C20.7301 15.4403 20.9026 15.1939 20.9268 14.9838C20.9277 14.9811 20.9286 14.9776 20.9286 14.974C21.0104 14.9909 21.0948 14.9989 21.1765 14.9989C21.4388 14.9989 21.6957 14.9191 21.9409 14.7604C22.4142 14.4537 22.4969 14.0539 22.4897 13.7915C22.5723 13.8075 22.6567 13.8172 22.7412 13.8172C22.9864 13.8172 23.2271 13.7445 23.4561 13.6001C23.7507 13.4148 23.9268 13.1311 23.9537 12.8014C23.9726 12.5771 23.916 12.3511 23.7956 12.156C24.5896 11.8183 26.4031 11.1659 28.5399 10.6908C28.5264 10.5268 28.503 10.3654 28.4725 10.205C25.8884 10.7714 23.96 11.594 23.4768 11.8077Z" fill="#28316B"/>
</svg>
