<svg width="1180" height="352" viewBox="0 0 1180 352" fill="none" xmlns="http://www.w3.org/2000/svg">
<path d="M146.766 157.056C148.595 159.428 149.967 162.099 150.882 165.068C151.798 168.035 152.256 171.199 152.256 174.564C152.256 181.979 150.203 188.31 146.097 193.55C141.545 199.387 135.413 202.305 127.696 202.305H76.129V183.389H124.358C126.584 183.389 128.364 182.524 129.7 180.794C130.887 179.262 131.48 177.356 131.48 175.081C131.48 172.855 130.911 171.028 129.773 169.592C128.487 167.961 126.681 167.145 124.358 167.145H76.129V146.967H124.358C126.632 146.967 128.388 146.193 129.626 144.643C130.862 143.091 131.48 141.257 131.48 139.14C131.48 136.877 130.887 134.982 129.7 133.457C128.364 131.733 126.584 130.87 124.358 130.87H76.129V111.733H127.696C135.364 111.733 141.52 114.697 146.172 120.62C150.376 126.002 152.479 132.42 152.479 139.875C152.479 143.183 151.996 146.318 151.032 149.28C150.066 152.242 148.644 154.835 146.766 157.056Z" fill="white"/>
<path d="M236.469 202.304H200.334C188.91 202.304 179.856 199.438 173.179 193.706C167.935 189.21 164.226 183.082 162.049 175.326C160.614 170.235 159.897 164.702 159.897 158.723C159.897 157.341 159.91 156.364 159.935 155.794C159.96 155.227 160.021 154.72 160.121 154.275V111.733H180.153V154.267C180.153 161.924 181.761 168.369 184.976 173.606C188.687 179.634 193.805 182.647 200.334 182.647H236.469V202.304Z" fill="white"/>
<path d="M334.262 202.305H312.819L289.149 132.577C289.001 131.836 288.482 131.464 287.592 131.464C286.75 131.464 286.132 131.836 285.736 132.577L262.587 202.305H240.848C242.082 198.002 244.742 189.448 248.824 176.639C252.904 163.832 256.873 151.715 260.733 140.292C265.035 127.584 267.656 120.513 268.597 119.076C270.378 116.554 272.975 114.627 276.388 113.291C279.801 111.956 283.51 111.289 287.518 111.289C291.524 111.289 295.222 111.956 298.61 113.291C301.998 114.627 304.582 116.554 306.365 119.076C307.45 120.562 310.122 127.584 314.377 140.142C316.998 147.857 320.905 159.974 326.1 176.491C329.265 186.531 331.986 195.134 334.262 202.305Z" fill="white"/>
<path d="M408.535 202.304H364.24C353.605 202.304 345.196 197.683 339.013 188.444C333.473 180.143 330.703 169.914 330.703 157.759C330.703 145.407 333.522 134.883 339.161 126.186C345.394 116.55 353.752 111.733 364.24 111.733H408.535V130.87H367.579C362.632 130.87 358.75 133.488 355.93 138.722C353.407 143.415 352.145 149.217 352.145 156.13C352.145 163.24 353.455 169.316 356.078 174.351C358.946 179.881 362.78 182.647 367.579 182.647H408.535V202.304Z" fill="white"/>
<path d="M494.308 204.286L436.879 181.608V202.303H416.846V111.66H436.879V133.762L494.308 110.971V132.706L439.921 155.849V159.262L494.308 182.924V204.286Z" fill="white"/>
<path d="M752.729 130.87H704.501C702.324 130.87 700.607 131.695 699.343 133.344C698.082 134.993 697.453 136.926 697.453 139.14C697.453 141.306 698.057 143.151 699.27 144.679C700.482 146.206 702.225 146.967 704.501 146.967H732.918C740.584 146.967 746.644 149.835 751.096 155.571C755.102 160.715 757.106 167.069 757.106 174.636C757.106 182.153 755.102 188.507 751.096 193.698C746.644 199.436 740.584 202.304 732.918 202.304H681.201V183.016H729.652C731.73 183.016 733.363 182.164 734.55 180.459C735.738 178.751 736.333 176.785 736.333 174.561C736.333 172.336 735.763 170.444 734.624 168.888C733.487 167.329 731.831 166.55 729.652 166.55H701.162C693.445 166.55 687.336 163.71 682.834 158.031C678.777 152.945 676.75 146.647 676.75 139.142C676.75 131.735 678.777 125.463 682.834 120.325C687.386 114.598 693.493 111.733 701.162 111.733H752.729V130.87Z" fill="white"/>
<path d="M838.501 204.286L781.072 181.608V202.303H761.039V111.66H781.072V133.762L838.501 110.971V132.706L784.114 155.849V159.262L838.501 182.924V204.286Z" fill="white"/>
<path d="M922.717 169.84C922.717 180.315 918.66 188.666 910.547 194.891C903.227 200.524 894.273 203.343 883.69 203.343C873.4 203.343 864.744 200.575 857.719 195.04C849.854 188.865 845.922 180.465 845.922 169.84V111.732H865.584V166.565C865.584 171.308 867.613 175.112 871.67 177.977C875.38 180.597 879.855 181.905 885.1 181.905C890.145 181.905 894.398 180.646 897.86 178.125C901.719 175.31 903.647 171.458 903.647 166.565V111.732H922.717V169.84Z" fill="white"/>
<path d="M1007.45 202.304H971.316C959.889 202.304 950.837 199.438 944.16 193.706C938.915 189.21 935.206 183.082 933.029 175.326C931.595 170.235 930.878 164.702 930.878 158.723C930.878 157.341 930.89 156.364 930.914 155.794C930.939 155.227 931 154.72 931.101 154.275V111.733H951.134V154.267C951.134 161.924 952.741 168.369 955.957 173.606C959.667 179.634 964.787 182.647 971.316 182.647H1007.45V202.304Z" fill="white"/>
<path d="M1092.11 202.304H1055.98C1044.55 202.304 1035.5 199.438 1028.82 193.706C1023.57 189.21 1019.87 183.082 1017.69 175.326C1016.25 170.235 1015.54 164.702 1015.54 158.723C1015.54 157.341 1015.55 156.364 1015.57 155.794C1015.6 155.227 1015.66 154.72 1015.76 154.275V111.733H1035.79V154.267C1035.79 161.924 1037.4 168.369 1040.62 173.606C1044.33 179.634 1049.45 182.647 1055.98 182.647H1092.11V202.304Z" fill="white"/>
<path d="M79.2356 257.457H84.7379V263.658H89.8893V257.457H95.39V275.309H89.8893V268.233H84.7379V275.309H79.2356V257.457Z" fill="white"/>
<path d="M129.591 257.457H144.371V262.034H135.093V264.26H143.521V268.508H135.093V270.732H144.646V275.309H129.591V257.457Z" fill="white"/>
<path d="M183.501 257.457H188.878L195.381 275.309H189.679L188.929 272.759H183.251L182.451 275.309H176.925L183.501 257.457ZM187.827 268.933L186.227 263.434H186.177L184.452 268.933H187.827Z" fill="white"/>
<path d="M236.858 275.309H230.706L225.379 257.457H230.931L233.857 268.283H233.907L236.782 257.457H242.435L236.858 275.309Z" fill="white"/>
<path d="M278.888 268.734L272.612 257.457H278.689L281.665 264.034L284.765 257.457H290.793L284.391 268.734V275.309H278.888V268.734Z" fill="white"/>
<path d="M366.952 269.309C366.952 269.759 367.028 270.159 367.151 270.485C367.552 271.559 368.753 271.785 369.778 271.785C370.678 271.785 372.054 271.484 372.054 270.159C372.054 269.233 371.278 268.984 368.203 268.108C365.377 267.309 362.15 266.535 362.15 262.935C362.15 258.81 365.676 257.034 369.353 257.034C373.23 257.034 376.655 258.508 376.806 262.859H371.604C371.703 262.186 371.405 261.734 370.953 261.436C370.503 261.108 369.877 260.985 369.328 260.985C368.578 260.985 367.352 261.184 367.352 262.186C367.453 263.459 370.004 263.734 372.53 264.434C375.055 265.134 377.556 266.309 377.556 269.584C377.556 274.235 373.28 275.736 369.304 275.736C367.277 275.736 361.501 275.011 361.45 269.309H366.952Z" fill="white"/>
<path d="M410.633 257.457H419.836C424.687 257.457 426.388 261.008 426.388 263.558C426.388 267.884 423.486 269.91 419.385 269.91H416.135V275.309H410.633V257.457ZM416.135 265.658H418.261C419.686 265.658 421.186 265.558 421.186 263.759C421.186 262.133 419.937 262.034 418.585 262.034H416.135V265.658Z" fill="white"/>
<path d="M468.143 257.034C473.571 257.034 477.196 260.933 477.196 266.383C477.196 271.834 473.571 275.736 468.143 275.736C462.716 275.736 459.089 271.834 459.089 266.383C459.089 260.933 462.716 257.034 468.143 257.034ZM468.143 271.284C469.544 271.284 471.694 270.358 471.694 266.383C471.694 262.41 469.544 261.484 468.143 261.484C466.744 261.484 464.592 262.41 464.592 266.383C464.592 270.358 466.744 271.284 468.143 271.284Z" fill="white"/>
<path d="M510.896 257.457H521.376C524.502 257.457 527.203 259.184 527.203 262.56C527.203 264.408 526.352 266.358 524.527 267.034C526.028 267.609 526.952 269.26 527.153 271.484C527.228 272.36 527.252 274.484 527.753 275.309H522.251C521.976 274.408 521.877 273.485 521.801 272.559C521.651 270.859 521.501 269.083 519.324 269.083H516.399V275.309H510.896V257.457ZM516.399 265.258H519.275C520.3 265.258 521.7 265.083 521.7 263.482C521.7 262.357 521.074 261.708 518.975 261.708H516.399V265.258Z" fill="white"/>
<path d="M564.506 262.034H559.505V257.457H575.009V262.034H570.008V275.309H564.506V262.034Z" fill="white"/>
<path d="M612.788 269.309C612.788 269.759 612.864 270.159 612.989 270.485C613.389 271.559 614.591 271.785 615.614 271.785C616.515 271.785 617.891 271.484 617.891 270.159C617.891 269.233 617.114 268.984 614.04 268.108C611.214 267.309 607.986 266.535 607.986 262.935C607.986 258.81 611.514 257.034 615.189 257.034C619.065 257.034 622.491 258.508 622.642 262.859H617.44C617.54 262.186 617.24 261.734 616.791 261.436C616.339 261.108 615.713 260.985 615.166 260.985C614.414 260.985 613.19 261.184 613.19 262.186C613.289 263.459 615.84 263.734 618.366 264.434C620.891 265.134 623.392 266.309 623.392 269.584C623.392 274.235 619.116 275.736 615.138 275.736C613.114 275.736 607.337 275.011 607.287 269.309H612.788Z" fill="white"/>
<path d="M696.198 257.457H701.826L707.027 267.009H707.078V257.457H712.279V275.309H706.926L701.45 265.558H701.399V275.309H696.198V257.457Z" fill="white"/>
<path d="M762.736 268.41C762.736 273.358 760.062 275.736 754.609 275.736C749.158 275.736 746.456 273.358 746.456 268.41V257.457H751.96V267.185C751.96 269.009 751.96 271.284 754.634 271.284C757.236 271.284 757.236 269.009 757.236 267.185V257.457H762.736V268.41Z" fill="white"/>
<path d="M801.065 262.034H796.062V257.457H811.567V262.034H806.565V275.309H801.065V262.034Z" fill="white"/>
<path d="M844.971 257.457H855.449C858.576 257.457 861.276 259.184 861.276 262.56C861.276 264.408 860.427 266.358 858.601 267.034C860.102 267.609 861.027 269.26 861.228 271.484C861.304 272.36 861.327 274.484 861.828 275.309H856.325C856.05 274.408 855.951 273.485 855.875 272.559C855.726 270.859 855.576 269.083 853.4 269.083H850.474V275.309H844.971V257.457ZM850.474 265.258H853.349C854.374 265.258 855.775 265.083 855.775 263.482C855.775 262.357 855.15 261.708 853.049 261.708H850.474V265.258Z" fill="white"/>
<path d="M900.355 257.457H894.853V275.309H900.355V257.457Z" fill="white"/>
<path d="M938.735 262.034H933.732V257.457H949.238V262.034H944.236V275.309H938.735V262.034Z" fill="white"/>
<path d="M988.144 257.457H982.642V275.309H988.144V257.457Z" fill="white"/>
<path d="M1030.88 257.034C1036.3 257.034 1039.93 260.933 1039.93 266.383C1039.93 271.834 1036.3 275.736 1030.88 275.736C1025.45 275.736 1021.82 271.834 1021.82 266.383C1021.82 260.933 1025.45 257.034 1030.88 257.034ZM1030.88 271.284C1032.28 271.284 1034.43 270.358 1034.43 266.383C1034.43 262.41 1032.28 261.484 1030.88 261.484C1029.48 261.484 1027.32 262.41 1027.32 266.383C1027.32 270.358 1029.48 271.284 1030.88 271.284Z" fill="white"/>
<path d="M1073.65 257.457H1079.28L1084.48 267.009H1084.53V257.457H1089.73V275.309H1084.38L1078.91 265.558H1078.86V275.309H1073.65V257.457Z" fill="white"/>
<path d="M668.713 175.499C663.654 170.615 663.41 164.692 665.108 157.959C665.783 155.279 667.136 135.917 667.136 135.23C667.136 131.846 667.339 125.073 666.864 121.925C664.846 108.51 661.471 105.503 653.774 97.8081C646.508 90.5446 636.4 85.6583 626.676 82.1262C623.746 81.0636 620.714 80.281 617.719 79.4161C608.177 76.6583 597.63 76.1509 589.864 76.1081H589.859C582.092 76.1509 571.546 76.6567 562.003 79.4145C559.009 80.281 555.976 81.0619 553.047 82.1262C543.322 85.6583 533.216 90.5446 525.95 97.8081C518.251 105.503 514.877 108.51 512.858 121.925C512.383 125.073 513.939 155.279 514.614 157.959C516.312 164.692 516.068 170.615 511.009 175.499C509.471 176.984 509.467 178.396 510.216 180.167C511.48 183.155 512.153 189.802 513.908 192.527C515.813 195.484 520.016 198.321 521.74 199.443C522.495 199.934 525.405 201.509 526.11 201.819C527.242 202.316 536.54 203.369 537.858 203.369C539.076 203.369 552.43 204.804 552.43 211.166C552.43 215.179 551.829 215.992 552.692 219.982C553.015 221.481 554.886 228.357 554.787 228.693C554.717 228.926 554.704 231.805 554.694 232.048C554.668 232.789 554.685 233.543 554.9 234.252C555.116 234.962 555.551 235.629 556.199 235.992C556.97 236.425 558.47 236.372 559.351 236.293C559.697 236.262 560.063 236.22 560.343 236.015C560.515 235.891 560.656 231.67 560.846 229.619C560.933 228.667 561.148 229.061 561.169 228.964C561.182 229.003 561.426 228.735 561.528 229.711C561.731 231.647 561.858 235.504 561.92 235.558C562.108 235.725 562.38 235.749 562.632 235.766C563.214 235.802 564.198 235.833 564.718 235.57C564.944 235.454 565.144 235.288 565.369 235.169C565.865 234.909 566.075 234.901 566.622 234.774C566.79 234.735 566.961 234.68 567.088 234.563C567.23 234.435 567.299 234.244 567.337 234.054C567.408 233.702 567.502 233.331 567.395 232.988C567.353 232.856 567.172 229.504 567.21 227.664C567.232 226.568 567.49 226.629 567.466 226.519C567.515 226.693 567.625 226.642 567.754 227.695C567.986 229.608 568.281 233.09 568.395 233.525C568.441 233.697 568.374 233.891 568.461 234.048C568.586 234.27 568.881 234.357 569.14 234.329C569.4 234.301 569.637 234.184 569.88 234.089C570.491 233.848 570.779 233.738 571.439 233.769C572.08 233.799 572.391 233.952 572.951 233.649C573.47 233.367 573.719 232.758 573.732 232.181C573.737 231.973 573.662 229.064 573.76 227.509C573.83 226.392 574.093 226.499 574.057 226.352C574.115 226.344 574.156 226.858 574.167 226.95C574.247 227.593 574.752 232.716 575.247 233.135C575.738 233.55 576.442 233.566 577.086 233.562C577.968 233.553 578.096 233.547 578.978 233.54C579.243 233.538 579.513 233.535 579.762 233.446C580.003 233.361 580.21 233.199 580.387 233.016C580.851 232.535 581.14 228.459 581.397 226.423C581.514 225.489 581.741 225.988 581.769 225.675C581.776 225.871 581.975 225.563 582.048 226.547C582.175 228.268 582.203 231.627 582.227 231.97C582.247 232.234 582.28 232.524 582.481 232.703C582.61 232.82 582.788 232.87 582.961 232.899C584.267 233.125 585.976 232.446 587.29 232.639C587.83 232.718 588.369 232.944 588.906 232.843C589.282 232.772 589.381 229.048 589.529 226.95C589.607 225.848 589.819 225.759 589.834 225.664C590.147 225.374 590.045 226.738 590.056 227.074C590.098 227.352 590.243 232.735 590.816 232.843C591.353 232.944 591.892 232.718 592.434 232.639C593.746 232.446 595.455 233.125 596.763 232.899C596.936 232.87 597.113 232.82 597.241 232.703C597.442 232.524 597.475 232.234 597.495 231.97C597.52 231.632 597.505 228.415 597.632 226.702C597.706 225.69 597.946 225.876 597.953 225.675C597.981 225.995 598.063 225.68 598.185 226.641C598.443 228.672 598.876 232.54 599.336 233.016C599.514 233.199 599.72 233.361 599.96 233.446C600.209 233.535 600.479 233.538 600.745 233.54C601.626 233.547 601.755 233.553 602.638 233.562C603.281 233.566 603.984 233.55 604.475 233.135C604.78 232.876 604.993 229.184 605.237 227.291C605.388 226.11 605.644 226.349 605.665 226.352C605.632 226.492 605.677 226.23 605.741 227.291C605.84 228.875 605.985 231.968 605.99 232.181C606.003 232.758 606.252 233.367 606.771 233.649C607.331 233.952 607.644 233.799 608.284 233.769C608.943 233.738 609.231 233.848 609.843 234.089C610.085 234.184 610.324 234.301 610.582 234.329C610.843 234.357 611.136 234.27 611.261 234.048C611.349 233.891 611.281 233.697 611.327 233.525C611.433 233.127 611.688 229.593 611.909 227.758C612.062 226.484 612.199 226.721 612.258 226.519C612.229 226.642 612.441 226.598 612.469 227.881C612.507 229.642 612.365 232.868 612.329 232.988C612.22 233.331 612.314 233.702 612.385 234.054C612.425 234.244 612.492 234.435 612.634 234.563C612.761 234.68 612.934 234.735 613.102 234.774C613.648 234.901 613.857 234.909 614.354 235.169C614.579 235.288 614.778 235.454 615.005 235.57C615.524 235.833 616.508 235.802 617.09 235.766C617.342 235.749 617.614 235.725 617.804 235.558C617.865 235.506 618.011 231.954 618.212 230.023C618.319 228.992 618.54 229.005 618.553 228.964C618.575 229.064 618.833 228.797 618.926 229.805C619.115 231.855 619.211 235.894 619.379 236.015C619.659 236.22 620.025 236.262 620.373 236.293C621.253 236.372 622.754 236.425 623.525 235.992C624.171 235.629 624.606 234.962 624.822 234.252C625.038 233.543 625.054 232.789 625.028 232.048C625.018 231.805 625.005 228.926 624.936 228.693C624.837 228.357 626.707 221.481 627.032 219.982C627.894 215.992 627.294 215.179 627.294 211.166C627.294 204.804 640.396 203.369 641.864 203.369C643.227 203.369 652.48 202.316 653.612 201.819C654.317 201.509 657.228 199.934 657.982 199.443C659.706 198.321 663.696 195.578 665.816 192.527C667.665 189.865 668.242 183.155 669.506 180.167C670.256 178.396 670.251 176.984 668.713 175.499ZM600.753 201.776C600.573 202.848 599.525 204.203 598.541 204.61C597.113 205.199 595.481 204.835 594.394 203.326C593.629 202.267 592.701 201.325 591.881 200.303C590.002 197.969 589.631 197.987 587.842 200.303C587.041 201.341 586.093 202.265 585.329 203.326C584.241 204.834 582.61 205.199 581.183 204.61C580.199 204.203 579.149 202.848 578.969 201.776C577.564 193.417 578.91 185.4 582.964 177.985C584.35 175.452 585.284 172.186 588.456 170.865C588.913 170.676 589.387 170.549 589.86 170.483C590.335 170.549 590.809 170.676 591.266 170.865C594.018 172.012 595.793 175.997 596.758 177.763C600.812 185.178 602.158 193.417 600.753 201.776ZM594.936 167.684C594.936 166.574 598.006 163.702 601.527 164.944C602.775 165.384 607.216 165.32 608.158 165.205C609.714 165.015 611.586 164.298 612.754 163.508C617.27 160.452 616.986 159.615 621.019 155.974C625.947 151.523 630.275 146.416 635.04 141.775C637.052 139.813 639.392 138.101 641.821 136.683C643.57 135.663 649.771 135.106 651.788 134.727C654.082 134.294 656.013 135.33 655.913 137.701C655.797 140.454 655.626 143.281 654.897 145.915C652.739 153.734 651.025 163.106 646.564 169.913C646.106 170.615 643.743 172.895 643.013 173.351C639.289 175.682 635.937 177.88 631.768 178.933C631.198 179.076 627.879 177.242 627.114 176.938C621.096 174.534 617.509 174.272 611.083 173.709C609.973 173.611 599.87 170.735 594.936 167.684ZM584.786 167.684C579.853 170.735 569.751 173.611 568.64 173.709C562.214 174.272 558.628 174.534 552.608 176.938C551.844 177.242 548.525 179.076 547.956 178.933C543.785 177.88 540.434 175.682 536.709 173.351C535.979 172.895 533.616 170.615 533.158 169.913C528.699 163.106 526.985 153.734 524.825 145.915C524.096 143.281 523.925 140.454 523.81 137.701C523.711 135.33 525.641 134.294 527.934 134.727C529.951 135.106 536.152 135.663 537.901 136.683C540.33 138.101 542.67 139.813 544.683 141.775C549.448 146.416 553.777 151.523 558.704 155.974C562.738 159.615 562.453 160.452 566.968 163.508C568.136 164.298 570.01 165.015 571.565 165.205C572.506 165.32 576.947 165.384 578.195 164.944C581.716 163.702 584.786 166.697 584.786 167.684Z" fill="white"/>
<path d="M1094.43 188.336V183.59H1092.73V182.723H1097.12V183.59H1095.42V188.336H1094.43Z" fill="white"/>
<path d="M1102.8 188.336V184.002L1101.08 188.336H1100.66L1098.94 184.002V188.336H1097.95V182.723H1099.34L1100.87 186.577L1102.4 182.723H1103.79V188.336H1102.8Z" fill="white"/>
</svg>
