<svg width="894" height="894" viewBox="0 0 894 894" fill="none" xmlns="http://www.w3.org/2000/svg">
<path d="M446.691 879.369C505.105 879.369 561.772 867.933 615.103 845.374C666.622 823.582 712.901 792.385 752.641 752.641C792.383 712.903 823.582 666.625 845.372 615.103C867.933 561.772 879.369 505.108 879.369 446.691C879.369 388.271 867.933 331.609 845.372 278.276C823.582 226.754 792.383 180.48 752.641 140.743C712.901 101.001 666.622 69.8018 615.103 48.0093C561.772 25.4508 505.105 14.0103 446.691 14.0103C388.276 14.0103 331.609 25.4508 278.279 48.0093C226.754 69.8018 180.48 101.001 140.743 140.743C100.998 180.48 69.7993 226.754 48.0093 278.276C25.4508 331.609 14.0103 388.271 14.0103 446.691C14.0103 505.108 25.4508 561.772 48.0093 615.103C69.7993 666.625 100.998 712.903 140.743 752.641C180.48 792.385 226.754 823.582 278.279 845.374C331.609 867.933 388.276 879.369 446.691 879.369ZM446.691 893.381C199.989 893.381 0 693.392 0 446.691C0 199.992 199.989 0 446.691 0C693.392 0 893.381 199.992 893.381 446.691C893.381 693.392 693.392 893.381 446.691 893.381Z" fill="black"/>
<path d="M446.69 861.909C502.748 861.909 557.122 850.931 608.312 829.284C657.756 808.367 702.163 778.429 740.295 740.294C778.43 702.159 808.369 657.757 829.284 608.315C850.928 557.125 861.908 502.747 861.908 446.694C861.908 390.635 850.928 336.262 829.284 285.072C808.369 235.628 778.43 191.221 740.295 153.088C702.163 114.953 657.756 85.0127 608.312 64.1003C557.122 42.4509 502.748 31.4711 446.69 31.4711C390.632 31.4711 336.259 42.4509 285.069 64.1003C235.627 85.0127 191.22 114.953 153.085 153.088C114.95 191.221 85.0118 235.628 64.0969 285.072C42.4475 336.262 31.4701 390.635 31.4701 446.694C31.4701 502.747 42.4475 557.125 64.0969 608.315C85.0118 657.757 114.95 702.159 153.085 740.294C191.22 778.429 235.627 808.367 285.069 829.284C336.259 850.931 390.632 861.909 446.69 861.909ZM446.69 866.583C214.792 866.583 26.8008 678.592 26.8008 446.694C26.8008 214.795 214.792 26.8042 446.69 26.8042C678.589 26.8042 866.58 214.795 866.58 446.694C866.58 678.592 678.589 866.583 446.69 866.583Z" fill="black"/>
<path d="M174.955 385.018L165.956 438.732L146.251 435.43L154.666 385.195C155.054 382.875 154.465 380.87 152.891 379.176C151.502 377.675 149.623 376.725 147.252 376.327C144.932 375.939 142.93 376.211 141.237 377.147C139.31 378.204 138.144 379.939 137.739 382.361L129.324 432.596L108.303 429.074L116.718 378.839C117.115 376.468 116.616 374.504 115.217 372.945C113.813 371.389 112.012 370.424 109.806 370.055C107.447 369.658 105.372 369.949 103.575 370.916C101.546 372.007 100.339 373.714 99.9508 376.029L91.5311 426.261L71.5957 422.923L80.59 369.212C81.9283 361.224 86.0908 355.325 93.073 351.519C99.4175 348.081 106.47 347.01 114.235 348.311C117.68 348.891 120.861 349.938 123.78 351.458C126.699 352.983 129.154 354.915 131.138 357.257C133.93 355.771 136.951 354.809 140.202 354.367C143.453 353.934 146.83 354.011 150.334 354.598C158.065 355.892 164.3 359.134 169.042 364.324C174.33 370.084 176.303 376.982 174.955 385.018ZM199.211 318.819C193.814 329.61 186.832 336.808 178.262 340.41C171.537 343.24 163.995 343.848 155.638 342.238C150.152 341.191 144.585 339.254 138.934 336.43C137.63 335.775 136.714 335.302 136.185 335.014C135.661 334.718 135.213 334.422 134.837 334.119L94.6415 314.021L104.104 295.097L144.29 315.19C151.526 318.805 158.375 320.334 164.843 319.77C172.288 319.115 177.557 315.702 180.638 309.529L197.7 275.399L216.276 284.684L199.211 318.819ZM268.038 230.226L197.957 196.479C197.288 196.038 196.626 196.157 195.967 196.831C195.344 197.461 195.167 198.205 195.431 199.052L230.882 268.09L214.802 284.478C212.472 280.362 207.992 272.027 201.349 259.474C194.711 246.925 188.51 234.963 182.752 223.608C176.354 210.96 172.962 203.752 172.574 201.98C171.99 198.77 172.458 195.388 173.973 191.829C175.493 188.266 177.733 184.978 180.698 181.955C183.661 178.934 186.897 176.643 190.413 175.077C193.926 173.514 197.288 172.99 200.508 173.514C202.435 173.79 209.703 176.975 222.322 183.061C230.077 186.794 242.102 192.811 258.399 201.115C268.309 206.157 276.809 210.473 283.9 214.061L268.038 230.226ZM285.753 182.05C291.249 185.674 296.206 186.251 300.631 183.781L338.4 162.694L348.521 180.825L307.676 203.631C297.867 209.103 287.736 209.173 277.277 203.832C267.895 199.027 260.069 191.022 253.812 179.81C247.45 168.415 244.628 157.261 245.353 146.334C246.139 134.237 251.363 125.492 261.036 120.088L301.879 97.2872L311.734 114.939L273.97 136.026C269.41 138.569 267.175 142.984 267.272 149.263C267.361 154.887 269.185 160.89 272.744 167.268C276.407 173.826 280.741 178.753 285.753 182.05ZM427.354 142.555L432.064 164.621L367.751 153.84L372.306 175.225L351.617 179.635L331.645 85.9873L352.335 81.575L357.208 104.41L411.501 68.2168L416.291 90.6687L365.215 126.564L365.969 130.084L427.354 142.555ZM570.373 107.782L520.742 96.3223C518.499 95.8083 516.54 96.2495 514.848 97.646C513.158 99.04 512.051 100.885 511.527 103.161C511.008 105.394 511.195 107.438 512.08 109.293C512.962 111.15 514.577 112.352 516.919 112.89L546.161 119.644C554.047 121.465 559.604 125.856 562.824 132.821C565.723 139.066 566.276 146.082 564.474 153.869C562.688 161.605 559.119 167.671 553.759 172.064C547.814 176.91 540.9 178.425 533.009 176.6L479.79 164.313L484.374 144.463L534.236 155.973C536.374 156.47 538.253 155.978 539.882 154.504C541.509 153.03 542.585 151.146 543.114 148.858C543.642 146.567 543.506 144.487 542.706 142.61C541.906 140.739 540.386 139.541 538.146 139.022L508.829 132.254C500.886 130.421 495.279 126.047 491.994 119.135C489.029 112.931 488.44 105.974 490.222 98.2472C491.984 90.6226 495.558 84.649 500.957 80.3216C506.998 75.5092 513.963 74.011 521.855 75.8317L574.919 88.0819L570.373 107.782ZM675.65 140.145L664.125 160.005L602.178 152.315L600.367 155.43L637.496 205.886L626.169 225.404L585.736 174.234L574.763 193.143L556.467 182.522L604.534 99.7042L622.833 110.328L611.112 130.525L675.65 140.145ZM672.375 240.147C676.009 244.043 680.05 246.414 684.494 247.272C689.447 248.215 693.811 246.925 697.586 243.398L739.907 203.842L753.658 218.555L708.81 260.47C700.73 268.029 691.355 270.919 680.7 269.152C671.075 267.566 662.445 262.693 654.813 254.526C647.394 246.588 643.287 237.911 642.492 228.5C641.583 217.976 645.232 208.885 653.433 201.221L698.279 159.304L712.456 174.476L670.14 214.029C666.476 217.448 665.005 221.756 665.72 226.953C666.375 231.705 668.593 236.1 672.375 240.147ZM740.552 283.324C733.294 286.888 727.929 291.41 724.457 296.896C720.466 303.221 719.991 309.478 723.031 315.668L739.847 349.924L721.206 359.073L704.393 324.817C699.074 313.983 697.576 304.067 699.906 295.068C701.731 288.006 705.814 281.635 712.156 275.962C716.314 272.233 721.23 268.977 726.898 266.194C728.212 265.549 729.143 265.105 729.696 264.868C730.244 264.628 730.753 264.451 731.221 264.337L771.562 244.535L780.888 263.525L740.552 283.324ZM775.603 375.103C767.62 376.378 761.159 379.13 756.235 383.358C750.567 388.231 748.279 394.073 749.37 400.883L755.394 438.565L734.889 441.843L728.864 404.164C726.956 392.245 728.438 382.327 733.301 374.41C737.119 368.189 742.892 363.296 750.618 359.737C755.687 357.388 761.343 355.72 767.579 354.724C769.024 354.489 770.042 354.338 770.636 354.273C771.235 354.205 771.773 354.181 772.255 354.212L816.633 347.114L819.974 368.007L775.603 375.103Z" fill="black"/>
<path d="M137.555 570.618L140.268 579.346L111.941 588.154L109.229 579.426L120.456 575.937L117.915 567.76L106.683 571.256L103.973 562.528L132.299 553.713L135.014 562.448L125.174 565.505L127.714 573.678L137.555 570.618ZM149.487 619.704L143.019 605.713L139.659 607.265L145.538 619.973L139.126 622.938L133.251 610.232L129.894 611.784L136.558 626.184L129.654 629.38L119.159 606.676L146.081 594.227L156.387 616.514L149.487 619.704ZM153.548 669.66L148.505 661.64L151.432 658.329L146.413 650.338L142.12 651.47L137.237 643.693L168.167 637.167L172.919 644.735L153.548 669.66ZM162.125 646.214L152.86 648.651L155.844 653.398L162.167 646.285L162.125 646.214ZM196.166 676.213L202.088 683.496L173.224 695.026L166.778 687.093L184.211 661.514L190.03 668.671L179.142 683.792L179.193 683.857L196.166 676.213ZM229.636 711.022L208.959 717.07L201.349 724.916L194.786 718.554L202.396 710.709L207.953 689.998L215.204 697.024L211.143 708.309L222.448 704.054L229.636 711.022ZM275.265 754.914L267.977 750.274C268.717 749.414 268.697 748.517 268.338 747.692C267.997 746.837 267.228 746.102 266.457 745.612C265.405 744.943 263.512 744.133 262.617 745.532C261.621 747.411 264.952 750.073 267.866 753.305C270.785 756.544 273.24 760.42 270.317 765.014C266.166 771.533 258.833 769.822 253.259 766.275C250.42 764.466 242.968 758.296 247.986 750.262L255.7 755.167C255.298 755.799 255.046 756.425 254.932 756.997C254.529 758.859 256.013 760.248 257.453 761.16C258.711 761.962 260.91 762.767 262.093 760.912C262.918 759.615 262.052 758.573 258.525 754.602C255.274 750.958 251.443 746.992 254.655 741.944C258.338 736.157 264.867 736.817 270.016 740.097C275.451 743.554 278.938 748.679 275.265 754.914ZM312.711 775.097C309.635 781.594 303.833 782.567 297.678 779.648L292.795 777.332L288.95 785.439L280.691 781.524L293.409 754.718L307.22 761.271C314.508 764.728 314.53 771.267 312.711 775.097ZM302.085 767.25L298.408 765.504L295.826 770.949L299.016 772.464C301.154 773.478 303.479 774.397 304.759 771.693C305.921 769.254 304.115 768.212 302.085 767.25ZM353.181 794.08C350.415 802.703 342.698 807.033 334.116 804.279C325.529 801.53 321.771 793.517 324.535 784.891C327.306 776.268 335.023 771.936 343.605 774.685C352.192 777.441 355.949 785.454 353.181 794.08ZM341.348 781.73C339.129 781.02 335.26 781.393 333.241 787.684C331.224 793.976 334.157 796.528 336.373 797.241C338.586 797.951 342.46 797.578 344.48 791.284C346.497 784.996 343.563 782.44 341.348 781.73ZM397.386 796.468C396.853 799.496 394.897 802.441 391.716 803.016C394.004 804.39 395.037 807.363 394.724 811.06C394.594 812.517 394.017 816.001 394.598 817.494L385.597 815.904C385.405 814.35 385.51 812.808 385.655 811.271C385.902 808.446 386.169 805.501 382.61 804.868L377.824 804.022L376.023 814.209L367.024 812.619L372.188 783.41L389.33 786.436C394.443 787.343 398.363 790.945 397.386 796.468ZM384.171 792.698L379.958 791.954L378.932 797.762L383.635 798.596C385.313 798.892 387.657 799.008 388.118 796.393C388.443 794.55 387.609 793.306 384.171 792.698ZM436.571 798.376L428.275 797.947L427.138 819.977L418.008 819.509L419.15 797.474L410.846 797.042L411.239 789.452L436.964 790.78L436.571 798.376ZM464.786 820.093C461.428 820.323 451.769 819.785 451.03 810.337L460.15 809.705C460.201 810.454 460.376 811.108 460.618 811.632C461.404 813.368 463.421 813.605 465.123 813.489C466.614 813.387 468.859 812.73 468.711 810.534C468.602 808.999 467.288 808.672 462.087 807.574C457.311 806.572 451.876 805.654 451.464 799.682C450.991 792.843 456.633 789.495 462.727 789.073C469.154 788.635 475.004 790.688 475.749 797.881L467.123 798.48C467.215 797.348 466.667 796.637 465.884 796.189C465.103 795.702 464.051 795.566 463.14 795.631C461.896 795.714 459.888 796.189 460 797.842C460.315 799.949 464.575 800.112 468.842 800.982C473.106 801.857 477.387 803.518 477.766 808.951C478.294 816.66 471.377 819.64 464.786 820.093ZM541.153 805.603L527.957 792.511L527.879 792.533L532.323 808.124L524.01 810.49L515.876 781.958L524.866 779.395L537.533 792.291L537.613 792.269L533.256 777L541.57 774.629L549.708 803.166L541.153 805.603ZM581.065 791.665C572.766 795.299 567.074 793.483 563.777 785.949L556.477 769.284L564.848 765.618L571.331 780.421C572.545 783.199 574.063 786.659 578.136 784.879C582.092 783.144 580.577 779.682 579.358 776.903L572.875 762.098L581.246 758.432L588.548 775.097C591.85 782.632 589.361 788.033 581.065 791.665ZM624.451 768.086L616.622 772.806L605.238 753.904L598.117 758.195L594.197 751.678L616.261 738.39L620.186 744.9L613.066 749.191L624.451 768.086ZM661.298 741.804C660.018 740.911 658.932 739.808 657.885 738.679C655.938 736.618 653.914 734.455 651.075 736.691L647.261 739.704L653.671 747.828L646.495 753.489L628.119 730.206L641.78 719.42C645.86 716.2 651.16 715.672 654.634 720.074C656.537 722.486 657.436 725.907 655.747 728.666C658.297 727.871 661.206 729.073 663.754 731.772C664.755 732.834 666.974 735.578 668.474 736.14L661.298 741.804ZM648.408 726.945C647.254 725.476 645.766 725.27 643.026 727.435L639.666 730.082L643.324 734.712L647.07 731.757C648.408 730.7 650.054 729.03 648.408 726.945ZM681.098 724.319L660.375 703.089L666.918 696.706L687.644 717.936L681.098 724.319ZM711.453 691.532L705.594 698.549L688.662 684.4L683.333 690.774L677.495 685.901L694.017 666.13L699.855 671.008L694.526 677.384L711.453 691.532ZM727.357 670.414L702.789 653.785L707.909 646.219L732.479 662.848L727.357 670.414ZM750.187 634.17C745.988 642.144 737.447 644.454 729.435 640.231C721.422 636.013 718.498 627.658 722.7 619.685C726.899 611.709 735.444 609.403 743.452 613.621C751.465 617.847 754.391 626.194 750.187 634.17ZM739.195 621.709C733.35 618.63 730.322 621.074 729.243 623.132C728.157 625.188 727.849 629.067 733.694 632.148C739.537 635.227 742.565 632.781 743.648 630.723C744.735 628.664 745.038 624.788 739.195 621.709ZM770.239 586.41L751.903 589.426L751.877 589.506L767.104 595.039L764.149 603.163L736.271 593.029L739.466 584.243L757.334 581.545L757.363 581.465L742.446 576.044L745.399 567.925L773.274 578.056L770.239 586.41Z" fill="black"/>
<path d="M682.99 529.802C667.816 515.147 667.083 497.377 672.172 477.175C674.201 469.131 678.257 411.031 678.257 408.975C678.257 398.82 678.866 378.499 677.445 369.049C671.389 328.797 661.265 319.779 638.173 296.689C616.378 274.894 586.062 260.234 556.887 249.635C548.101 246.442 539.008 244.098 530.023 241.499C501.399 233.225 469.761 231.705 446.466 231.579H446.449C423.153 231.705 391.518 233.225 362.891 241.499C353.906 244.098 344.813 246.442 336.027 249.635C306.852 260.234 276.536 274.894 254.741 296.689C231.652 319.779 221.525 328.797 215.469 369.049C214.048 378.499 218.713 469.131 220.74 477.175C225.833 497.377 225.099 515.147 209.925 529.802C205.313 534.256 205.296 538.494 207.544 543.808C211.338 552.773 213.353 572.718 218.618 580.896C224.33 589.769 236.944 598.278 242.115 601.646C244.379 603.12 253.107 607.847 255.223 608.778C258.618 610.267 286.507 613.428 290.464 613.428C294.115 613.428 334.172 617.731 334.172 636.825C334.172 648.865 332.371 651.304 334.96 663.273C335.932 667.772 341.542 688.403 341.244 689.414C341.036 690.112 340.997 698.75 340.97 699.478C340.888 701.701 340.939 703.963 341.586 706.091C342.233 708.222 343.538 710.225 345.479 711.313C347.792 712.61 352.292 712.453 354.934 712.213C355.974 712.121 357.07 711.999 357.914 711.384C358.425 711.01 358.855 698.346 359.419 692.193C359.681 689.334 360.326 690.515 360.387 690.224C360.426 690.343 361.163 689.535 361.468 692.471C362.074 698.278 362.455 709.847 362.641 710.012C363.209 710.511 364.023 710.584 364.78 710.632C366.525 710.744 369.473 710.836 371.034 710.045C371.716 709.699 372.31 709.199 372.988 708.843C374.477 708.062 375.105 708.038 376.744 707.657C377.248 707.541 377.762 707.379 378.145 707.03C378.569 706.637 378.775 706.065 378.889 705.5C379.103 704.443 379.384 703.33 379.064 702.3C378.94 701.907 378.397 691.846 378.511 686.326C378.577 683.033 379.352 683.218 379.275 682.888C379.425 683.414 379.755 683.256 380.14 686.418C380.838 692.154 381.723 702.608 382.065 703.912C382.203 704.426 382 705.01 382.264 705.478C382.64 706.145 383.522 706.404 384.3 706.322C385.079 706.239 385.794 705.89 386.519 705.604C388.352 704.879 389.219 704.549 391.195 704.642C393.115 704.734 394.054 705.189 395.734 704.28C397.29 703.439 398.034 701.606 398.076 699.878C398.09 699.255 397.865 690.527 398.158 685.858C398.369 682.505 399.154 682.83 399.05 682.391C399.22 682.364 399.346 683.906 399.38 684.183C399.617 686.11 401.135 701.483 402.619 702.741C404.09 703.987 406.202 704.035 408.132 704.019C410.779 703.997 411.165 703.977 413.812 703.955C414.605 703.951 415.415 703.941 416.164 703.672C416.884 703.415 417.504 702.932 418.035 702.382C419.427 700.94 420.295 688.709 421.063 682.599C421.417 679.797 422.101 681.295 422.183 680.359C422.203 680.946 422.804 680.02 423.02 682.973C423.398 688.137 423.485 698.219 423.558 699.243C423.616 700.035 423.718 700.906 424.317 701.446C424.705 701.793 425.236 701.943 425.754 702.033C429.677 702.709 434.802 700.675 438.742 701.25C440.366 701.487 441.98 702.169 443.593 701.863C444.72 701.65 445.013 690.479 445.462 684.183C445.695 680.876 446.332 680.609 446.373 680.323C447.314 679.453 447.006 683.545 447.045 684.556C447.164 685.387 447.603 701.538 449.321 701.863C450.934 702.169 452.548 701.487 454.173 701.25C458.112 700.675 463.237 702.709 467.16 702.033C467.679 701.943 468.212 701.793 468.597 701.446C469.196 700.906 469.298 700.035 469.356 699.243C469.429 698.232 469.388 688.575 469.763 683.438C469.987 680.403 470.711 680.958 470.733 680.359C470.816 681.314 471.063 680.374 471.427 683.252C472.2 689.346 473.499 700.952 474.879 702.382C475.41 702.932 476.03 703.415 476.75 703.672C477.5 703.941 478.309 703.951 479.104 703.955C481.749 703.977 482.137 703.997 484.782 704.019C486.712 704.035 488.824 703.987 490.295 702.741C491.209 701.965 491.844 690.886 492.579 685.208C493.035 681.664 493.798 682.381 493.864 682.391C493.764 682.81 493.895 682.02 494.094 685.208C494.388 689.957 494.824 699.238 494.839 699.878C494.88 701.606 495.624 703.439 497.18 704.28C498.861 705.189 499.799 704.734 501.719 704.642C503.695 704.549 504.563 704.879 506.395 705.604C507.12 705.89 507.835 706.239 508.614 706.322C509.394 706.404 510.277 706.145 510.65 705.478C510.914 705.01 510.711 704.426 510.846 703.912C511.164 702.717 511.933 692.113 512.594 686.604C513.055 682.786 513.465 683.494 513.639 682.888C513.552 683.259 514.192 683.123 514.274 686.978C514.388 692.263 513.964 701.936 513.853 702.3C513.53 703.33 513.811 704.443 514.025 705.5C514.139 706.065 514.345 706.637 514.771 707.03C515.152 707.379 515.666 707.541 516.17 707.657C517.809 708.038 518.439 708.062 519.928 708.843C520.604 709.199 521.198 709.699 521.88 710.045C523.441 710.836 526.389 710.744 528.134 710.632C528.891 710.584 529.705 710.511 530.273 710.012C530.457 709.852 530.898 699.196 531.502 693.402C531.824 690.306 532.486 690.345 532.527 690.224C532.59 690.525 533.366 689.722 533.643 692.75C534.21 698.901 534.498 711.018 535 711.384C535.844 711.999 536.94 712.121 537.98 712.213C540.622 712.453 545.122 712.61 547.437 711.313C549.377 710.225 550.683 708.222 551.331 706.091C551.975 703.963 552.026 701.701 551.946 699.478C551.92 698.75 551.876 690.112 551.672 689.414C551.374 688.403 556.982 667.772 557.956 663.273C560.546 651.304 558.742 648.865 558.742 636.825C558.742 617.731 598.048 613.428 602.45 613.428C606.54 613.428 634.297 610.267 637.691 608.778C639.807 607.847 648.535 603.12 650.799 601.646C655.97 598.278 667.939 590.048 674.298 580.896C679.845 572.907 681.576 552.773 685.37 543.808C687.618 538.494 687.601 534.256 682.99 529.802ZM479.131 608.65C478.591 611.862 475.444 615.925 472.493 617.147C468.21 618.917 463.315 617.823 460.054 613.299C457.758 610.119 454.977 607.292 452.514 604.228C446.878 597.221 445.77 597.274 440.402 604.228C437.997 607.34 435.156 610.116 432.86 613.299C429.599 617.823 424.705 618.917 420.421 617.147C417.47 615.925 414.326 611.862 413.785 608.647C409.569 583.565 413.608 559.508 425.769 537.262C429.924 529.659 432.729 519.865 442.242 515.901C443.612 515.329 445.035 514.948 446.456 514.75C447.876 514.946 449.3 515.329 450.672 515.901C458.927 519.339 464.248 531.296 467.145 536.595C479.306 558.844 483.345 583.565 479.131 608.65ZM461.676 506.354C461.676 503.018 470.888 494.405 481.454 498.133C485.194 499.454 498.519 499.256 501.341 498.911C506.007 498.344 511.625 496.194 515.13 493.82C528.675 484.651 527.822 482.142 539.919 471.216C554.703 457.862 567.685 442.536 581.979 428.61C588.018 422.726 595.037 417.587 602.324 413.332C607.566 410.27 626.17 408.602 632.219 407.463C639.099 406.166 644.891 409.274 644.593 416.389C644.244 424.646 643.732 433.129 641.548 441.033C635.068 464.493 629.928 492.615 616.55 513.043C615.176 515.145 608.087 521.986 605.898 523.356C594.726 530.353 584.67 536.945 572.163 540.104C570.456 540.535 560.499 535.034 558.204 534.118C540.15 526.905 529.393 526.117 510.114 524.428C506.783 524.137 476.479 515.509 461.676 506.354ZM431.236 506.354C416.433 515.509 386.131 524.137 382.797 524.428C363.521 526.117 352.765 526.905 334.71 534.118C332.415 535.034 322.46 540.535 320.751 540.104C308.244 536.945 298.188 530.353 287.016 523.356C284.827 521.986 277.741 515.145 276.364 513.043C262.986 492.615 257.847 464.493 251.366 441.033C249.184 433.129 248.67 424.646 248.321 416.389C248.023 409.274 253.815 406.166 260.695 407.463C266.744 408.602 285.348 410.27 290.592 413.332C297.877 417.587 304.896 422.726 310.937 428.61C325.229 442.536 338.211 457.862 352.995 471.216C365.092 482.142 364.239 484.651 377.784 493.82C381.289 496.194 386.907 498.344 391.573 498.911C394.398 499.256 407.72 499.454 411.46 498.133C422.028 494.405 431.236 503.394 431.236 506.354Z" fill="black"/>
<path d="M760.853 449.099V440.186H757.662V438.559H765.894V440.186H762.703V449.099H760.853Z" fill="#231F20"/>
<path d="M776.564 449.099V440.961L773.339 449.099H772.552L769.313 440.961V449.099H767.463V438.559H770.071L772.947 445.796L775.805 438.559H778.411V449.099H776.564Z" fill="#231F20"/>
</svg>
