<svg width="96" height="24" viewBox="0 0 96 24" fill="none" xmlns="http://www.w3.org/2000/svg">
<g clip-path="url(#clip0_172_317)">
<path d="M43.4284 6.25808C44.8788 4.80478 46.6277 4.07812 48.6752 4.07812C50.7228 4.07812 52.4717 4.80478 53.922 6.25808C55.3724 7.71138 56.0976 9.46389 56.0976 11.5156C56.0976 13.5673 55.3724 15.3198 53.922 16.7731C52.4717 18.2264 50.7228 18.9531 48.6752 18.9531C46.6277 18.9531 44.8788 18.2264 43.4284 16.7731C41.9781 15.3198 41.2529 13.5673 41.2529 11.5156C41.2529 9.46389 41.9781 7.71138 43.4284 6.25808ZM51.0143 9.1728C50.3706 8.52751 49.5912 8.20493 48.6759 8.20507C47.7606 8.20522 46.9811 8.52779 46.3372 9.1728C45.6934 9.8181 45.3715 10.5992 45.3717 11.516C45.3717 12.4177 45.6935 13.191 46.3372 13.8362C46.9809 14.4813 47.7605 14.8038 48.6759 14.8037C49.5912 14.8037 50.3706 14.4812 51.0143 13.8362C51.658 13.1912 51.98 12.4178 51.9803 11.516C51.9803 10.599 51.6583 9.81796 51.0143 9.1728Z" fill="white"/>
<path d="M17.6404 13.6274C17.6444 14.3343 17.5033 15.0344 17.226 15.6844C16.9606 16.3129 16.5757 16.8837 16.0928 17.3649C15.608 17.8446 15.0367 18.2278 14.4093 18.4942C13.7658 18.7709 13.0771 18.9093 12.3433 18.9095C11.6972 18.9113 11.0563 18.7947 10.4521 18.5656C9.84677 18.3352 9.28951 17.9941 8.80869 17.5596C8.33498 17.9947 7.78339 18.336 7.18303 18.5656C6.5767 18.7959 5.93324 18.9125 5.2848 18.9095C4.5511 18.9095 3.86482 18.7711 3.22596 18.4942C2.60086 18.2269 2.03173 17.8438 1.54847 17.3649C1.06555 16.8837 0.680668 16.3129 0.415285 15.6844C0.13744 15.0346 -0.0039162 14.3343 1.89221e-05 13.6274V8.60065L3.53607 6.99924V13.6274C3.53433 13.8614 3.58064 14.0932 3.67215 14.3085C3.85009 14.7295 4.1845 15.0647 4.60463 15.2431C4.81953 15.3346 5.05088 15.3809 5.28437 15.3792C5.52039 15.3806 5.75426 15.3343 5.972 15.2431C6.184 15.1549 6.37738 15.0272 6.5419 14.8667C6.70726 14.7058 6.83842 14.5131 6.92745 14.3C7.01649 14.087 7.06156 13.8581 7.05997 13.6271L7.08108 5.55812L10.6043 3.94196L10.5815 13.6274C10.5798 13.862 10.6282 14.0942 10.7236 14.3085C10.8157 14.5164 10.9452 14.7056 11.1056 14.8667C11.2655 15.0268 11.4546 15.1546 11.6627 15.2431C11.8776 15.3346 12.1091 15.3809 12.3426 15.3792C12.8107 15.381 13.2603 15.1965 13.5927 14.8663C13.753 14.7052 13.8825 14.516 13.9747 14.3081C14.0702 14.0938 14.1187 13.8616 14.1169 13.6269L14.1577 2.23411L17.6867 0.604492L17.6404 13.6274Z" fill="white"/>
<path d="M23.7668 18.6498H20.205V4.75H23.7668V18.6498Z" fill="white"/>
<path d="M22.1912 0.0121821C22.123 0.00422849 22.0545 0.000161244 21.9858 0C21.9645 0 21.941 0 21.9189 0.00170977L21.8747 0V0.00384698C21.528 0.0257795 21.1952 0.148865 20.9174 0.357941C20.6397 0.567017 20.429 0.85295 20.3113 1.18052C20.1937 1.50808 20.1743 1.86297 20.2554 2.20147C20.3366 2.53997 20.5148 2.84728 20.7681 3.08556C21.0214 3.32383 21.3387 3.48266 21.6809 3.54248C22.0232 3.60229 22.3754 3.56048 22.6942 3.42219C23.0131 3.28391 23.2846 3.05519 23.4753 2.76421C23.666 2.47323 23.7676 2.1327 23.7676 1.78457V0.0728788L22.1912 0.0121821Z" fill="#558FFC"/>
<path d="M78.9722 22.0042H78.0003V22.7674H78.9436V22.9781H78.0003V23.7603H78.9978V23.9711H77.7607V21.7935H78.9715L78.9722 22.0042Z" fill="white"/>
<path d="M81.1675 22.2055C80.9223 22.0715 80.6864 21.9917 80.4125 21.9917C79.8962 21.9917 79.5012 22.3717 79.5012 22.8894C79.5012 23.41 79.893 23.774 80.4029 23.774C80.6896 23.774 80.9383 23.6908 81.1899 23.544V23.8026C80.9496 23.932 80.6812 24 80.4085 24.0007C79.7106 24.0007 79.2452 23.4961 79.2452 22.8894C79.2452 22.2029 79.8094 21.7656 80.3925 21.7656C80.6601 21.7656 80.9214 21.8389 81.1667 21.9475L81.1675 22.2055Z" fill="white"/>
<path d="M81.4128 22.8827C81.4128 22.3078 81.843 21.7651 82.5727 21.7651C83.2802 21.7651 83.7358 22.2888 83.7358 22.8827C83.7358 23.5339 83.2132 24.0002 82.5601 24.0002C81.9228 24.0011 81.4128 23.5243 81.4128 22.8827ZM83.4818 22.8763C83.4818 22.4452 83.1503 21.9917 82.5736 21.9917C82.016 21.9917 81.6686 22.4163 81.6686 22.8857C81.6686 23.4159 82.0924 23.7735 82.5578 23.7735C83.0763 23.7735 83.4809 23.3999 83.4809 22.8763H83.4818Z" fill="white"/>
<path d="M86.1457 23.9711H85.9066V22.1574L85.1578 23.0867H85.1324L84.3804 22.1574V23.9711H84.1409V21.7935H84.3704L85.1446 22.7481L85.9158 21.7935H86.1457V23.9711Z" fill="white"/>
<path d="M88.6587 23.9711H88.4197V22.1574L87.6708 23.0867H87.6454L86.8934 22.1574V23.9711H86.6543V21.7935H86.8838L87.658 22.7481L88.4293 21.7935H88.6587V23.9711Z" fill="white"/>
<path d="M90.3794 22.0042H89.4074V22.7674H90.3506V22.9781H89.4074V23.7603H90.4048V23.9711H89.1677V21.7935H90.3787L90.3794 22.0042Z" fill="white"/>
<path d="M91.3127 21.7935C91.8767 21.7935 92.0296 22.116 92.0296 22.3778C92.0296 22.6746 91.8481 22.8345 91.6408 22.9121C91.7971 23.0142 91.9053 23.1835 92.173 23.605C92.2655 23.7518 92.3133 23.8187 92.4217 23.9721H92.1348L91.9277 23.6432C91.8424 23.506 91.746 23.3686 91.6472 23.241C91.5071 23.0621 91.3859 22.976 91.1534 22.976H90.9973V23.9721H90.7582V21.7935H91.3127ZM90.9973 22.0042V22.7642H91.2776C91.5868 22.7642 91.7747 22.63 91.7747 22.381C91.7747 22.1542 91.609 22.0042 91.2776 22.0042H90.9973Z" fill="white"/>
<path d="M94.3685 22.2055C94.123 22.0715 93.8873 21.9917 93.6132 21.9917C93.0971 21.9917 92.7019 22.3717 92.7019 22.8894C92.7019 23.41 93.0939 23.774 93.6036 23.774C93.8905 23.774 94.139 23.6908 94.3906 23.544V23.8026C94.1508 23.9318 93.8829 23.9998 93.6107 24.0007C92.9128 24.0007 92.4476 23.4961 92.4476 22.8894C92.4476 22.2029 93.0116 21.7656 93.5947 21.7656C93.8623 21.7656 94.1236 21.8389 94.3691 21.9475L94.3685 22.2055Z" fill="white"/>
<path d="M95.9744 22.0042H95.0025V22.7674H95.9459V22.9781H95.0025V23.7603H95.9996V23.9711H94.7626V21.7935H95.9734L95.9744 22.0042Z" fill="white"/>
<path d="M33.086 4.10107C34.6684 4.10107 36.0918 4.54412 37.3562 5.43021C38.6205 6.31629 39.5163 7.47438 40.0436 8.90446H35.1107C34.5054 8.45365 33.8305 8.22824 33.086 8.22824C32.171 8.22824 31.3954 8.54697 30.7593 9.18443C30.1231 9.82189 29.8051 10.5992 29.8053 11.5163C29.8053 12.4332 30.1233 13.2143 30.7593 13.8596C31.3953 14.5049 32.1709 14.8273 33.086 14.8269C33.9545 14.8269 34.7147 14.5238 35.3667 13.9177H40.1135C39.6016 15.4099 38.7058 16.6224 37.4261 17.5552C36.1464 18.4881 34.6999 18.9543 33.0864 18.954C31.0389 18.954 29.2937 18.2313 27.8507 16.7858C26.4078 15.3404 25.6864 13.5837 25.6865 11.5159C25.6865 9.46419 26.4078 7.71545 27.8503 6.2697C29.2928 4.82395 31.038 4.10107 33.086 4.10107Z" fill="white"/>
<path d="M70.0827 4.07764C71.603 4.07764 72.9137 4.62562 74.015 5.72158C75.1163 6.81754 75.667 8.12715 75.6673 9.6504V18.9539H71.5255V9.6504C71.5255 9.262 71.3821 8.92397 71.0951 8.6363C70.8082 8.34863 70.4707 8.2048 70.0827 8.2048C69.6948 8.2048 69.3574 8.34863 69.0704 8.6363C68.7835 8.92397 68.64 9.262 68.64 9.6504V18.9539H64.5215V9.6504C64.5215 9.262 64.378 8.92397 64.0911 8.6363C63.8041 8.34863 63.4666 8.2048 63.0786 8.2048C62.6754 8.2048 62.3341 8.34863 62.0548 8.6363C61.7756 8.92397 61.636 9.262 61.636 9.6504V18.9539H57.5172V9.6504C57.5172 8.11162 58.0641 6.79809 59.1578 5.70982C60.2515 4.62156 61.5585 4.07749 63.0786 4.07764C64.3816 4.07764 65.5529 4.49738 66.5925 5.33688C67.6005 4.49738 68.7639 4.07764 70.0827 4.07764Z" fill="white"/>
<path d="M90.3605 4.07764C91.8808 4.07764 93.1916 4.62562 94.2928 5.72158C95.3941 6.81754 95.9449 8.12715 95.9452 9.6504V18.9539H91.8034V9.6504C91.8034 9.262 91.6599 8.92397 91.373 8.6363C91.086 8.34863 90.7485 8.2048 90.3605 8.2048C89.9726 8.2048 89.6353 8.34863 89.3485 8.6363C89.0617 8.92397 88.9183 9.262 88.9185 9.6504V18.9539H84.8V9.6504C84.8 9.262 84.6565 8.92397 84.3695 8.6363C84.0826 8.34863 83.7451 8.2048 83.3571 8.2048C82.9538 8.2048 82.6126 8.34863 82.3333 8.6363C82.0541 8.92397 81.9144 9.262 81.9144 9.6504V18.9539H77.795V9.6504C77.795 8.11162 78.3419 6.79809 79.4356 5.70982C80.5294 4.62156 81.8363 4.07749 83.3564 4.07764C84.6595 4.07764 85.8308 4.49738 86.8703 5.33688C87.8783 4.49738 89.0417 4.07764 90.3605 4.07764Z" fill="white"/>
</g>
<defs>
<clipPath id="clip0_172_317">
<rect width="96" height="24" fill="white"/>
</clipPath>
</defs>
</svg>
