<svg width="66" height="24" viewBox="0 0 66 24" fill="none" xmlns="http://www.w3.org/2000/svg">
<path d="M25.9725 3.59224e-06H5.00892C4.63648 -0.000637743 4.27022 0.0951958 3.94586 0.278152C3.6215 0.461107 3.35009 0.72494 3.1581 1.04395C2.9661 1.36296 2.86006 1.72626 2.85032 2.09843C2.84058 2.47059 2.92746 2.83892 3.1025 3.16753L5.19989 7.13722H1.39737C1.15665 7.13743 0.920066 7.19973 0.710499 7.31811C0.500931 7.43648 0.325486 7.60692 0.201121 7.81294C0.0767562 8.01896 0.00768712 8.25356 0.000605504 8.49408C-0.00647611 8.73459 0.0486604 8.97287 0.160689 9.18584L6.90674 21.9493C7.02579 22.1735 7.20369 22.3612 7.42134 22.492C7.63898 22.6229 7.88816 22.692 8.14214 22.692C8.39612 22.692 8.6453 22.6229 8.86295 22.492C9.08059 22.3612 9.25849 22.1735 9.37754 21.9493L11.2094 18.5018L13.5081 22.8516C13.6913 23.1979 13.9654 23.4878 14.3009 23.6901C14.6365 23.8924 15.0209 23.9996 15.4128 24C15.8046 24.0004 16.1893 23.8942 16.5253 23.6926C16.8613 23.491 17.1361 23.2018 17.32 22.8559L27.8292 3.08706C28 2.76693 28.0849 2.40799 28.0756 2.04529C28.0663 1.68258 27.9631 1.32848 27.7761 1.01752C27.5891 0.706569 27.3246 0.449377 27.0085 0.271045C26.6924 0.0927141 26.3354 -0.000667548 25.9725 3.59224e-06ZM16.5518 8.44618L12.0205 16.972C11.9412 17.1212 11.8228 17.246 11.6779 17.333C11.5331 17.4201 11.3673 17.466 11.1983 17.466C11.0293 17.466 10.8635 17.4201 10.7186 17.333C10.5738 17.246 10.4554 17.1212 10.3761 16.972L5.88846 8.48214C5.81258 8.34044 5.77471 8.18151 5.77853 8.02084C5.78235 7.86016 5.82774 7.70323 5.91027 7.56529C5.9928 7.42736 6.10967 7.31314 6.24948 7.23377C6.38929 7.1544 6.54728 7.11259 6.70806 7.11239H15.7528C15.9089 7.11245 16.0624 7.1529 16.1984 7.2298C16.3343 7.30671 16.448 7.41746 16.5284 7.55128C16.6088 7.6851 16.6532 7.83745 16.6573 7.99351C16.6614 8.14957 16.6251 8.30405 16.5518 8.44191V8.44618Z" fill="white"/>
<path d="M48.2722 9.17102H45.9787V17.0282C45.9787 17.1 45.9502 17.1688 45.8994 17.2195C45.8487 17.2702 45.7798 17.2987 45.708 17.2987H43.9395C43.8677 17.2987 43.7989 17.2702 43.7482 17.2195C43.6974 17.1688 43.6689 17.1 43.6689 17.0282V9.17102H41.3617C41.3268 9.17289 41.2919 9.16763 41.2592 9.15556C41.2264 9.14349 41.1964 9.12486 41.1711 9.10082C41.1458 9.07679 41.1256 9.04785 41.1119 9.01576C41.0981 8.98367 41.091 8.94909 41.0911 8.91418V7.52476C41.091 7.48985 41.0981 7.4553 41.1119 7.42321C41.1256 7.39112 41.1458 7.36218 41.1711 7.33814C41.1964 7.31411 41.2264 7.29548 41.2592 7.28341C41.2919 7.27134 41.3268 7.26608 41.3617 7.26794H48.2722C48.3438 7.26468 48.4137 7.28985 48.4669 7.33796C48.52 7.38607 48.5519 7.45322 48.5557 7.52476V8.91504C48.5517 8.98644 48.5197 9.05336 48.4666 9.10129C48.4135 9.14922 48.3436 9.17429 48.2722 9.17102Z" fill="white"/>
<path d="M55.6382 17.2413C54.7353 17.3684 53.824 17.4256 52.9122 17.4125C51.1703 17.4125 49.6312 16.9674 49.6312 14.5104V10.027C49.6312 7.57092 51.184 7.1386 52.9251 7.1386C53.8323 7.1253 54.7391 7.18253 55.6374 7.3098C55.8267 7.33634 55.908 7.40484 55.908 7.58033V8.83706C55.908 8.90881 55.8795 8.97762 55.8287 9.02835C55.7779 9.07909 55.7092 9.10759 55.6374 9.10759H52.7907C52.156 9.10759 51.9265 9.32332 51.9265 10.0253V11.2538H55.5295C55.6011 11.254 55.6697 11.2826 55.7203 11.3334C55.7709 11.3841 55.7992 11.4527 55.7992 11.5243V12.8085C55.7992 12.8801 55.7709 12.9487 55.7203 12.9994C55.6697 13.0502 55.6011 13.0788 55.5295 13.079H51.9265V14.5095C51.9265 15.2115 52.156 15.4272 52.7907 15.4272H55.6374C55.7092 15.4272 55.7779 15.4557 55.8287 15.5065C55.8795 15.5572 55.908 15.626 55.908 15.6978V16.9528C55.908 17.1334 55.8266 17.2148 55.6382 17.2413Z" fill="white"/>
<path d="M65.8244 17.2965H63.6774C63.6053 17.3022 63.5331 17.286 63.4705 17.2499C63.4078 17.2138 63.3575 17.1597 63.3262 17.0945L61.4652 14.1409L59.7789 17.0294C59.6838 17.1912 59.5896 17.2999 59.4423 17.2999H57.4443C57.4196 17.3033 57.3943 17.3014 57.3703 17.2944C57.3463 17.2874 57.3241 17.2755 57.3051 17.2593C57.286 17.2432 57.2705 17.2232 57.2597 17.2007C57.2489 17.1782 57.2429 17.1537 57.2421 17.1287C57.2445 17.0956 57.2536 17.0632 57.2687 17.0337L60.1934 12.154L57.2379 7.52423C57.223 7.49946 57.2139 7.47166 57.2113 7.4429C57.2171 7.3941 57.2412 7.34931 57.2787 7.31755C57.3162 7.28578 57.3644 7.26941 57.4135 7.2717H59.5871C59.7352 7.2717 59.8439 7.40695 59.9236 7.52851L61.6511 10.2552L63.3227 7.52851C63.3525 7.46073 63.399 7.40163 63.4579 7.35671C63.5168 7.31179 63.5861 7.28254 63.6594 7.2717H65.6574C65.7065 7.26941 65.7547 7.28578 65.7922 7.31755C65.8297 7.34931 65.8537 7.3941 65.8595 7.4429C65.8569 7.47166 65.8478 7.49946 65.8329 7.52423L62.8929 12.1822L65.9598 17.0294C65.9838 17.0706 65.9976 17.117 66 17.1647C66 17.2426 65.9323 17.2965 65.8244 17.2965Z" fill="white"/>
<path d="M37.8588 7.29458C37.8102 7.29481 37.7632 7.31205 37.7259 7.34333C37.6887 7.37461 37.6636 7.41793 37.655 7.46578L35.6955 14.7169C35.6689 14.865 35.6278 14.9189 35.5062 14.9189C35.3846 14.9189 35.3443 14.8632 35.3169 14.7169L33.3549 7.46408C33.3461 7.41631 33.3209 7.37306 33.2837 7.34181C33.2465 7.31056 33.1996 7.29325 33.151 7.29285H31.2215C31.19 7.29292 31.159 7.30008 31.1307 7.31383C31.1023 7.32758 31.0775 7.34755 31.0579 7.37225C31.0384 7.39695 31.0247 7.42573 31.0179 7.45645C31.0111 7.48718 31.0113 7.51904 31.0185 7.54967C31.0185 7.54967 33.4165 15.8657 33.4388 15.9471C33.567 16.3917 33.8433 16.7792 34.222 17.0454C34.6006 17.3116 35.0588 17.4406 35.5208 17.411C35.9798 17.4291 36.4321 17.2959 36.808 17.0319C37.1839 16.7678 37.4625 16.3875 37.601 15.9496C37.6395 15.8375 39.9801 7.54883 39.9801 7.54883C39.9874 7.5182 39.9876 7.48632 39.9808 7.45559C39.9739 7.42487 39.9602 7.39608 39.9407 7.37139C39.9212 7.34669 39.8964 7.32675 39.8681 7.313C39.8398 7.29925 39.8087 7.29205 39.7772 7.29199L37.8588 7.29458Z" fill="white"/>
<path d="M25.9725 3.59224e-06H5.00892C4.63648 -0.000637743 4.27022 0.0951958 3.94586 0.278152C3.6215 0.461107 3.35009 0.72494 3.1581 1.04395C2.9661 1.36296 2.86006 1.72626 2.85032 2.09843C2.84058 2.47059 2.92746 2.83892 3.1025 3.16753L5.19989 7.13722H1.39737C1.15665 7.13743 0.920066 7.19973 0.710499 7.31811C0.500931 7.43648 0.325486 7.60692 0.201121 7.81294C0.0767562 8.01896 0.00768712 8.25356 0.000605504 8.49408C-0.00647611 8.73459 0.0486604 8.97287 0.160689 9.18584L6.90674 21.9493C7.02579 22.1735 7.20369 22.3612 7.42134 22.492C7.63898 22.6229 7.88816 22.692 8.14214 22.692C8.39612 22.692 8.6453 22.6229 8.86295 22.492C9.08059 22.3612 9.25849 22.1735 9.37754 21.9493L11.2094 18.5018L13.5081 22.8516C13.6913 23.1979 13.9654 23.4878 14.3009 23.6901C14.6365 23.8924 15.0209 23.9996 15.4128 24C15.8046 24.0004 16.1893 23.8942 16.5253 23.6926C16.8613 23.491 17.1361 23.2018 17.32 22.8559L27.8292 3.08706C28 2.76693 28.0849 2.40799 28.0756 2.04529C28.0663 1.68258 27.9631 1.32848 27.7761 1.01752C27.5891 0.706569 27.3246 0.449377 27.0085 0.271045C26.6924 0.0927141 26.3354 -0.000667548 25.9725 3.59224e-06ZM16.5518 8.44618L12.0205 16.972C11.9412 17.1212 11.8228 17.246 11.6779 17.333C11.5331 17.4201 11.3673 17.466 11.1983 17.466C11.0293 17.466 10.8635 17.4201 10.7186 17.333C10.5738 17.246 10.4554 17.1212 10.3761 16.972L5.88846 8.48214C5.81258 8.34044 5.77471 8.18151 5.77853 8.02084C5.78235 7.86016 5.82774 7.70323 5.91027 7.56529C5.9928 7.42736 6.10967 7.31314 6.24948 7.23377C6.38929 7.1544 6.54728 7.11259 6.70806 7.11239H15.7528C15.9089 7.11245 16.0624 7.1529 16.1984 7.2298C16.3343 7.30671 16.448 7.41746 16.5284 7.55128C16.6088 7.6851 16.6532 7.83745 16.6573 7.99351C16.6614 8.14957 16.6251 8.30405 16.5518 8.44191V8.44618Z" fill="white"/>
</svg>
